<svg width="32" height="32" viewBox="0 0 32 32" fill="none" xmlns="http://www.w3.org/2000/svg">
<path fill-rule="evenodd" clip-rule="evenodd" d="M14.0001 2L14.0001 24.34L4.24006 14.58C3.46006 13.8 2.18006 13.8 1.40006 14.58C0.620057 15.36 0.620057 16.62 1.40006 17.4L14.5801 30.58C15.3601 31.36 16.6201 31.36 17.4001 30.58L30.6001 17.42C31.3801 16.64 31.3801 15.38 30.6001 14.6C29.8201 13.82 28.5601 13.82 27.7801 14.6L18.0001 24.34L18.0001 2C18.0001 0.899999 17.1001 -6.15675e-07 16.0001 -6.63757e-07C14.9001 -7.1184e-07 14.0001 0.899999 14.0001 2Z" fill="#13385A"/>
</svg>
