<svg width="20" height="20" viewBox="0 0 20 20" fill="none" xmlns="http://www.w3.org/2000/svg">
<path fill-rule="evenodd" clip-rule="evenodd" d="M4 0.833496C1.79086 0.833496 0 2.62436 0 4.8335V15.1668C0 17.376 1.79086 19.1668 4 19.1668L9.88077 19.1668V12.8948H7.516V10.4505H9.88077V8.648C9.88077 6.55597 11.3119 5.41683 13.403 5.41683C14.4047 5.41683 15.265 5.48364 15.516 5.51333V7.69984L14.066 7.70051C12.929 7.70051 12.709 8.18303 12.709 8.89027V10.4512H15.4207L15.0677 12.8955H12.709V19.1668L16 19.1668C18.2091 19.1668 20 17.376 20 15.1668V4.8335C20 2.62436 18.2091 0.833496 16 0.833496H4Z" fill="#969696"/>
</svg>
