<svg width="20" height="20" viewBox="0 0 20 20" fill="none" xmlns="http://www.w3.org/2000/svg">
<path fill-rule="evenodd" clip-rule="evenodd" d="M10 0.833496C7.28417 0.833496 6.94417 0.844191 5.8775 0.888496C2.24583 1.04127 0.2275 2.88836 0.0608333 6.22044C0.0116667 7.19898 0 7.51065 0 10.0002C0 12.4897 0.0116667 12.8021 0.06 13.7799C0.226667 17.1089 2.24167 18.9591 5.87667 19.1118C6.94417 19.1561 7.28417 19.1668 10 19.1668C12.7158 19.1668 13.0567 19.1561 14.1233 19.1118C17.7517 18.9591 19.775 17.112 19.9392 13.7799C19.9883 12.8021 20 12.4897 20 10.0002C20 7.51065 19.9883 7.19898 19.94 6.2212C19.7767 2.89523 17.7592 1.04204 14.1242 0.88926C13.0567 0.844191 12.7158 0.833496 10 0.833496ZM10 5.29306C7.16417 5.29306 4.865 7.40063 4.865 10.0001C4.865 12.5997 7.16417 14.708 10 14.708C12.8358 14.708 15.135 12.6004 15.135 10.0001C15.135 7.40063 12.8358 5.29306 10 5.29306ZM10 13.0557C8.15917 13.0557 6.66667 11.6884 6.66667 10.0002C6.66667 8.31275 8.15917 6.94462 10 6.94462C11.8408 6.94462 13.3333 8.31275 13.3333 10.0002C13.3333 11.6884 11.8408 13.0557 10 13.0557ZM15.3383 4.00746C14.675 4.00746 14.1375 4.50017 14.1375 5.10746C14.1375 5.71475 14.675 6.20746 15.3383 6.20746C16.0008 6.20746 16.5375 5.71475 16.5375 5.10746C16.5375 4.50017 16.0008 4.00746 15.3383 4.00746Z" fill="#969696"/>
</svg>
