<svg width="20" height="16" viewBox="0 0 20 16" fill="none" xmlns="http://www.w3.org/2000/svg">
<path fill-rule="evenodd" clip-rule="evenodd" d="M20 2.43032C19.2642 2.72977 18.4733 2.93143 17.6433 3.02234C18.4908 2.55713 19.1417 1.81998 19.4475 0.941504C18.655 1.37234 17.7767 1.68553 16.8417 1.85435C16.0942 1.12331 15.0267 0.666504 13.8467 0.666504C11.1975 0.666504 9.25083 2.9322 9.84917 5.28421C6.44 5.12762 3.41667 3.63039 1.3925 1.35477C0.3175 3.04525 0.835 5.25671 2.66167 6.37657C1.99 6.35671 1.35667 6.18789 0.804167 5.90602C0.759167 7.64845 2.12167 9.27859 4.095 9.64144C3.5175 9.78505 2.885 9.81866 2.24167 9.7056C2.76333 11.1998 4.27833 12.2868 6.075 12.3173C4.35 13.5571 2.17667 14.1109 0 13.8757C1.81583 14.9428 3.97333 15.5654 6.29 15.5654C13.9083 15.5654 18.2125 9.66741 17.9525 4.37748C18.7542 3.84657 19.45 3.18428 20 2.43032Z" fill="#969696"/>
</svg>
