<svg width="170" height="40" viewBox="0 0 170 40" fill="none" xmlns="http://www.w3.org/2000/svg">
<g clip-path="url(#clip0)">
<path d="M82.8651 39.9689C74.7851 39.7467 66.4795 38.2688 57.9935 35.5448C54.5398 34.434 50.8864 33.0575 47.1686 31.4685C44.7136 30.4205 39.1014 27.8462 38.7921 27.624C38.5924 27.484 38.5215 27.3584 38.5215 27.1652C38.5215 26.8078 38.863 26.5518 39.3398 26.5518C39.5911 26.5518 39.6491 26.5712 40.2354 26.8416C42.5873 27.9331 45.8412 29.1744 49.0114 30.179C63.7733 34.8735 81.2672 36.5253 98.0587 34.801C109.528 33.6274 120.546 30.8745 129.142 27.0445C130.385 26.4939 130.495 26.4649 130.869 26.605C131.384 26.803 131.494 27.2908 131.094 27.5854C130.94 27.7013 130.746 27.7931 127.924 29.1068C120.398 32.6083 114.322 34.9218 107.994 36.6895C99.4827 39.0802 90.9516 40.1911 82.8651 39.9689Z" fill="#969696"/>
<path fill-rule="evenodd" clip-rule="evenodd" d="M0.00195312 0.613592C0.00195312 0.613592 0.158788 0.99239 0.315623 2.05041C0.50731 4.70198 0.50731 6.90945 0.524736 9.3651C0.559588 11.2591 0.542162 13.1139 0.524736 14.8903C0.50731 16.092 0.50731 16.7582 0.50731 17.8423C0.50731 21.1078 0.158788 23.3936 0.158788 23.3936C0.158788 23.3936 3.38262 23.9161 8.22707 23.9161C13.0889 23.9161 18.2296 22.6622 21.2095 20.7682C24.1894 18.8742 26.8556 16.1704 26.8556 11.3244C26.8556 6.46535 24.0848 3.80071 20.4079 2.06347C16.7484 0.326231 11.1372 -0.0133801 6.83298 0.130301C2.52874 0.287045 0.141362 0.613592 0.00195312 0.613592ZM168.878 18.8873L162.396 17.7378C160.688 18.9918 158.858 19.6187 156.488 19.5926C151.626 19.5273 149.204 17.3851 148.315 13.8453H169.227C169.523 12.5914 169.628 11.246 169.523 9.99207C169.331 7.44499 168.286 5.1069 166.16 3.09536C164.051 1.10995 160.444 0.064991 155.965 0.091114C151.766 0.117239 148.333 1.18832 145.614 3.3566C143.053 5.3812 141.537 8.47689 141.606 12.513C141.676 16.3402 142.983 19.1877 146.172 21.5127C148.385 23.1324 151.382 24.0075 155.286 23.9945C162.709 23.8377 165.811 22.0352 168.878 18.8873ZM163.563 9.9137H148.559C148.821 7.01395 152.376 4.31013 156.14 4.32319C160.043 4.33625 163.389 6.42616 163.563 9.9137ZM97.7449 4.49299C102.711 4.49299 106.737 7.84991 106.737 12.0036C106.737 16.1573 102.711 19.5142 97.7449 19.5142C92.7785 19.5142 88.753 16.1573 88.753 12.0036C88.753 7.84991 92.7785 4.49299 97.7449 4.49299ZM97.9366 -0.000318527C106.266 -0.000318527 113.028 5.40733 113.028 11.9906C113.028 18.5738 106.075 23.9161 97.7449 23.9161C89.4152 23.9161 82.6539 18.5738 82.6539 11.9906C82.6539 5.40733 89.6069 -0.000318527 97.9366 -0.000318527ZM114.335 23.1063H121.061V7.87604C127.23 11.9122 131.761 16.9933 134.479 23.1063L140.265 23.1324V0.757275H133.817V11.7163C131.795 9.19529 129.321 7.11844 126.899 5.32896C124.459 3.53947 122.49 2.02428 120.015 0.757275H114.317L114.335 23.1063ZM55.5041 23.1063H62.0388V7.87604C68.2077 11.9122 72.6513 16.9933 75.3698 23.1063H81.225V0.757275H74.6902V11.5334C70.8913 7.43193 66.2908 3.76152 61.0107 0.757275H55.5041V23.1063ZM36.8233 0.770336H43.1664C49.3178 5.8645 53.0993 13.2837 54.3714 23.1193H47.488C47.3138 21.4082 47.035 19.8408 46.6516 18.2603H33.0592C32.6759 19.8408 32.3971 21.4082 32.2402 23.1193H25.5486C26.7336 13.2184 30.7764 5.55101 36.8233 0.770336ZM45.3621 14.0674C43.8808 10.5407 42.1208 7.62786 39.7334 4.95016C37.3635 7.64092 35.5163 10.6713 34.2094 14.0674H45.3621ZM6.90268 4.50605C6.90268 4.50605 8.22707 4.46687 9.86512 4.46687C11.5032 4.46687 15.0755 4.68892 17.7069 6.62209C20.3382 8.55526 20.3905 10.7366 20.3905 12.2518C20.3905 13.767 19.6934 17.0717 15.3892 18.5477C11.0849 20.0367 6.86783 19.4751 6.86783 19.4751L6.90268 4.50605Z" fill="url(#paint0_radial)"/>
</g>
<defs>
<radialGradient id="paint0_radial" cx="0" cy="0" r="1" gradientUnits="userSpaceOnUse" gradientTransform="translate(76.0949 23.3272) rotate(-0.00760204) scale(264.74 53.0369)">
<stop stop-color="#C8C8C8"/>
<stop offset="1" stop-color="#646464"/>
</radialGradient>
<clipPath id="clip0">
<rect width="169.552" height="40" fill="white"/>
</clipPath>
</defs>
</svg>
