<svg width="199" height="23" viewBox="0 0 199 23" fill="none" xmlns="http://www.w3.org/2000/svg">
<path fill-rule="evenodd" clip-rule="evenodd" d="M168.311 -0.000488281H188.334C194.602 -0.000488281 196.982 3.48376 196.982 6.49072C196.982 11.6137 191.372 12.5365 191.372 12.5365L198.646 22.0824H184.001L180.847 15.7343V22.0824H154.246L151.093 15.7343V22.0824H138.557V-0.000488281H158.58C164.848 -0.000488281 167.228 3.48376 167.228 6.49072C167.228 11.6137 161.598 12.5365 161.598 12.5365L168.311 21.3505V-0.000488281ZM68.3691 4.1997V8.384H70.1876C71.1356 8.384 71.8514 7.9067 72.1803 7.33394C72.4511 6.88847 72.6446 6.01343 72.1609 5.18611C71.5806 4.1997 70.4585 4.19971 70.1876 4.1838L68.3691 4.1997ZM55.6007 -0.000488281C55.6007 -0.000488281 73.8441 -0.000488281 76.9781 -0.000488281C82.9367 -0.000488281 84.349 3.67469 84.349 5.83842C84.3683 9.72042 81.0602 10.675 81.0602 10.675C81.0602 10.675 84.6198 11.7728 84.6198 15.9093C84.6198 22.3528 77.4424 22.0824 76.3204 22.0824H55.6007V-0.000488281ZM137.299 22.0824V17.0071H131.495V12.9819H137.241V8.59082H131.495V4.3429H137.299V-0.000488281H118.205V22.0824H137.299ZM103.25 22.0824H116.522V-0.000488281H103.25V8.36808H98.9553V-0.000488281H85.3743V22.0824H98.9553V12.8069H103.25V22.0824ZM54.4012 22.0824V17.0071H48.5974V12.9819H54.3432V8.59082H48.5974V4.3429H54.4012V-0.000488281H35.326V22.0824H54.4012ZM20.5843 -0.000488281H33.6235V22.0824H20.5843V-0.000488281ZM19.2687 22.0824V15.9889H13.4649V-0.000488281H0V22.0824H19.2687ZM150.861 4.1997V9.43404H152.447C154.169 9.43404 154.788 8.76583 155.156 8.0658C155.446 7.50896 155.659 6.49072 155.156 5.45658C154.885 4.89974 154.169 4.21562 152.447 4.21562H150.861V4.1997ZM180.635 4.1997V9.43404H182.221C183.943 9.43404 184.562 8.76583 184.929 8.0658C185.22 7.50896 185.432 6.49072 184.929 5.45658C184.659 4.89974 183.943 4.21562 182.221 4.21562H180.635V4.1997ZM68.3498 13.1251V17.6435H70.1876C71.1356 17.6435 72.1223 17.1185 72.4898 16.5139C72.78 16.0366 72.9735 15.082 72.4511 14.207C71.7934 13.0456 70.3231 13.141 70.1683 13.1251H68.3498Z" fill="#969696"/>
</svg>
