<svg width="91" height="23" viewBox="0 0 91 23" fill="none" xmlns="http://www.w3.org/2000/svg">
<path fill-rule="evenodd" clip-rule="evenodd" d="M168.311 0H188.334C194.602 0 196.982 3.48425 196.982 6.49121C196.982 11.6142 191.372 12.5369 191.372 12.5369L198.646 22.0828H184.001L180.847 15.7348V22.0828H154.246L151.093 15.7348V22.0828H138.557V0H158.58C164.848 0 167.228 3.48425 167.228 6.49121C167.228 11.6142 161.598 12.5369 161.598 12.5369L168.311 21.351V0ZM68.3691 4.20019V8.38449H70.1876C71.1356 8.38449 71.8514 7.90718 72.1803 7.33443C72.4511 6.88896 72.6446 6.01391 72.1609 5.1866C71.5806 4.20019 70.4585 4.20019 70.1876 4.18428L68.3691 4.20019ZM55.6007 0C55.6007 0 73.8441 0 76.9781 0C82.9367 0 84.349 3.67517 84.349 5.83891C84.3683 9.72091 81.0602 10.6755 81.0602 10.6755C81.0602 10.6755 84.6198 11.7733 84.6198 15.9098C84.6198 22.3533 77.4424 22.0828 76.3204 22.0828H55.6007V0ZM137.299 22.0828V17.0076H131.495V12.9824H137.241V8.59131H131.495V4.34338H137.299V0H118.205V22.0828H137.299ZM103.25 22.0828H116.522V0H103.25V8.36857H98.9553V0H85.3743V22.0828H98.9553V12.8074H103.25V22.0828ZM54.4012 22.0828V17.0076H48.5974V12.9824H54.3432V8.59131H48.5974V4.34338H54.4012V0H35.326V22.0828H54.4012ZM20.5843 0H33.6235V22.0828H20.5843V0ZM19.2687 22.0828V15.9894H13.4649V0H0V22.0828H19.2687ZM150.861 4.20019V9.43453H152.447C154.169 9.43453 154.788 8.76632 155.156 8.06629C155.446 7.50944 155.659 6.49121 155.156 5.45707C154.885 4.90023 154.169 4.21611 152.447 4.21611H150.861V4.20019ZM180.635 4.20019V9.43453H182.221C183.943 9.43453 184.562 8.76632 184.929 8.06629C185.22 7.50944 185.432 6.49121 184.929 5.45707C184.659 4.90023 183.943 4.21611 182.221 4.21611H180.635V4.20019ZM68.3498 13.1256V17.644H70.1876C71.1356 17.644 72.1223 17.119 72.4898 16.5144C72.78 16.0371 72.9735 15.0825 72.4511 14.2075C71.7934 13.0461 70.3231 13.1415 70.1683 13.1256H68.3498Z" fill="#969696"/>
</svg>
