<svg width="219" height="27" viewBox="0 0 219 27" fill="none" xmlns="http://www.w3.org/2000/svg">
<g clip-path="url(#clip0)">
<path d="M21.8625 12.1008L21.7884 12.2684C23.2711 12.7712 26.6073 14.7267 26.6073 18.6375C26.6073 22.3248 22.4556 26.068 16.0057 26.068C7.92482 26.068 5.10762 22.4924 5.10762 19.252C5.10762 15.0619 9.03687 12.2684 9.03687 8.46934C8.96274 5.67589 6.36795 3.27353 2.80938 2.71484L2.58697 2.82658C3.8473 3.77635 4.58867 5.06134 4.58867 6.40219C4.58867 10.5365 -0.0078125 13.4975 -0.0078125 18.1905C-0.0078125 22.5483 4.06971 27.0178 15.7833 27.0178C26.2366 27.0178 31.7227 23.1628 31.7227 19.0844C31.7227 15.5647 28.3866 12.5478 21.8625 12.1008Z" fill="url(#paint0_linear)"/>
<path d="M67.7531 26.2908L53.8896 12.8264V25.0058L56.7068 25.5086V26.0673H50.2569V25.5086L52.5551 25.0058V11.709C51.962 11.3179 51.2948 11.0386 50.5534 10.871C50.2569 10.8151 49.8862 10.7593 49.8862 10.7593V10.2006H55.3723L67.2342 21.8213V11.3179L64.4911 10.8151V10.2564H70.941V10.8151L68.6428 11.3179V23.3856C68.6428 24.503 68.7169 26.1232 68.7911 26.3467L67.7531 26.2908ZM96.8148 17.7429C96.8148 23.3298 91.6252 26.5701 85.9908 26.5701C80.3564 26.5701 75.0927 23.2739 75.0927 18.1898C75.0927 13.1057 80.2822 9.75362 85.9166 9.75362C91.7734 9.58601 96.6665 13.0499 96.8148 17.4635C96.8148 17.5194 96.8148 17.6311 96.8148 17.7429ZM93.182 18.5809C93.182 14.5025 89.92 10.4799 85.4718 10.4799C80.7271 10.4799 78.6512 13.9438 78.6512 17.5753C78.6512 21.2067 81.3202 25.788 86.4356 25.788C91.1804 25.8439 93.182 22.2124 93.182 18.5809ZM101.337 11.3179L99.113 10.8151V10.2564H107.639V10.8151L104.97 11.3179L110.827 23.3856L116.683 11.3179L114.014 10.8151V10.2564H120.316V10.8151L118.092 11.3179L110.752 26.4025H108.899L101.337 11.3179ZM151.676 17.9663H150.342V11.0386C154.79 11.0386 157.459 11.8208 157.459 14.5583C157.384 16.6255 155.086 17.9663 151.676 17.9663ZM189.782 25.5086L192.748 25.0058V11.3179L189.782 10.8151V10.2564H199.049V10.8151L196.084 11.3179V25.0058L199.049 25.5086V26.0673H189.782V25.5086ZM204.684 21.7096H205.277L207.204 25.1176C208.391 25.5645 209.651 25.788 210.985 25.8439C213.506 25.8439 215.878 24.7265 215.878 22.7152C215.878 21.2067 214.544 20.3128 212.468 19.4748L210.392 18.6368C207.872 17.6311 205.425 16.2903 205.425 14.0555C205.425 11.6532 207.649 9.75362 212.394 9.75362C214.099 9.75362 215.73 9.97709 217.287 10.3682L217.806 14.0555H217.139L215.285 11.0945C214.322 10.7034 213.284 10.4799 212.246 10.4799C209.873 10.4799 208.168 11.5973 208.168 13.1616C208.168 14.5583 209.428 15.4522 211.504 16.2903L213.951 17.24C217.361 18.5809 218.918 19.81 218.918 22.0448C218.918 24.8382 215.434 26.5701 211.134 26.5701C209.132 26.5701 207.056 26.3467 205.129 25.8997L204.684 21.7096ZM118.982 25.5086L121.354 25.0058L128.694 10.2564L131.14 9.80948L138.702 25.0617L141.074 25.5645V26.1232H132.104V25.5645L135.143 25.0617L132.993 20.7039H124.913L122.763 25.0617L125.802 25.5645V26.1232H118.908L118.982 25.5086ZM125.506 19.4189H132.475L128.99 12.3795L125.506 19.4189ZM155.902 18.3016C156.643 18.1898 160.795 17.3518 160.795 14.3907C160.795 11.9884 158.348 10.1447 152.417 10.1447C148.71 10.1447 145.004 10.2006 144.559 10.2006V10.7593L147.005 11.2621V24.9499L144.559 25.4528V26.0115H153.159V25.4528L150.342 24.9499V18.8044H152.788L159.016 26.0673H164.576V25.5086L161.759 24.9499L155.902 18.3016ZM174.139 11.0386V24.9499L171.174 25.4528V26.0115H180.441V25.4528L177.476 24.9499V11.0386H182.443L184.074 13.7203H184.741L184.296 10.2564H167.393L166.948 13.7203H167.615L169.246 11.0945L174.139 11.0386ZM15.9315 21.095L18.897 -0.0234375H12.7437L15.7091 21.095H15.9315Z" fill="#979696"/>
</g>
<defs>
<linearGradient id="paint0_linear" x1="-0.0022635" y1="14.8404" x2="26.845" y2="14.8404" gradientUnits="userSpaceOnUse">
<stop offset="0.2989" stop-color="#646464"/>
<stop offset="0.7" stop-color="#C8C8C8"/>
</linearGradient>
<clipPath id="clip0">
<rect width="219" height="27" fill="white"/>
</clipPath>
</defs>
</svg>
