<svg width="200" height="36" viewBox="0 0 200 36" fill="none" xmlns="http://www.w3.org/2000/svg">
<path fill-rule="evenodd" clip-rule="evenodd" d="M23.6734 32.2739C13.0476 32.2739 4.33594 25.7749 4.33594 17.697C4.33594 9.76594 13.0231 3.24854 23.6734 3.24854C34.4464 3.24854 43.1335 9.74758 43.1335 17.697C43.1335 25.7565 34.4464 32.2739 23.6734 32.2739ZM23.6734 26.1972C30.0047 26.1972 35.0108 22.4519 35.0108 17.697C35.0108 13.0705 30.0047 9.30697 23.6734 9.30697C17.4648 9.30697 12.4587 13.0522 12.4587 17.697C12.4587 22.4336 17.4648 26.1972 23.6734 26.1972Z" fill="#999696"/>
<path fill-rule="evenodd" clip-rule="evenodd" d="M142.863 32.2739C132.238 32.2739 123.526 25.7749 123.526 17.697C123.526 9.76594 132.213 3.24854 142.863 3.24854C153.636 3.24854 162.323 9.74758 162.323 17.697C162.323 25.7565 153.612 32.2739 142.863 32.2739ZM142.863 26.1972C149.195 26.1972 154.201 22.4519 154.201 17.697C154.201 13.0705 149.195 9.30697 142.863 9.30697C136.655 9.30697 131.649 13.0522 131.649 17.697C131.624 22.4336 136.63 26.1972 142.863 26.1972Z" fill="#999696"/>
<path fill-rule="evenodd" clip-rule="evenodd" d="M45.3418 4.12979V31.5947H53.44V9.19682H62.4461V31.5947H70.5442V9.19682H73.6609C76.9001 9.19682 79.4032 11.0694 79.4032 13.3827V31.5947H87.5259V13.603C87.5259 8.20544 81.7835 3.89111 74.5442 3.89111H53.6117C50.8142 3.89111 47.9921 3.89112 45.3418 4.12979Z" fill="#999696"/>
<path fill-rule="evenodd" clip-rule="evenodd" d="M164.532 4.12979V31.5947H172.63V9.19682H181.784C184.876 9.19682 187.526 11.0694 187.526 13.3827V31.5947H195.624V13.603C195.624 8.20544 189.882 3.89111 182.643 3.89111H172.63C169.98 3.89111 167.183 3.89112 164.532 4.12979Z" fill="#999696"/>
<path fill-rule="evenodd" clip-rule="evenodd" d="M90.937 4.12979V31.5947H99.0352V9.19682H108.63C111.894 9.19682 114.397 11.0694 114.397 13.3827C114.397 15.806 111.894 17.6786 108.63 17.6786H101.71L114.25 31.5947H124.287L115.133 21.5524C119.551 20.3407 122.495 17.1279 122.495 13.3827C122.495 8.20545 116.9 3.89111 109.808 3.89111H99.0352C96.2376 3.89111 93.5628 3.89112 90.937 4.12979Z" fill="#999696"/>
</svg>
