<svg width="150" height="113" viewBox="0 0 150 113" fill="none" xmlns="http://www.w3.org/2000/svg">
<path d="M109.785 52.9859L104.701 49.1816L109.762 45.3944V42.8467H106.357L101.296 46.6338L97.914 44.1033L109.762 35.2379V35.1863V32.6385L104.701 28.8514L109.785 25.047V22.4993L104.678 18.6777L109.762 14.8733V12.3256H106.334L101.25 16.1299L96.1656 12.3256H92.7607L87.6763 16.1299L82.5919 12.3083H79.187L67.3159 21.191L63.934 18.6605L68.9953 14.8733V12.3256H65.5904L60.5291 16.1127L55.4447 12.3083H52.0398L46.9324 16.1127L46.0582 15.4586H42.6533V18.0063L43.5275 18.6605L31.6334 27.5431V30.0908H35.0383L46.9094 21.2082L50.2913 23.7387L45.0919 27.6636V30.2113H48.4969L60.5061 21.2254L63.888 23.7559L58.7806 27.5775V30.1252L63.8649 33.9296L33.911 56.3427V58.8905H37.3159L46.8864 51.7293L50.2683 54.2598L31.6104 68.2207V70.7684H35.0153L60.5061 51.7293L63.888 54.2598L53.0291 62.385V64.9327H56.434L87.6763 41.5556L91.0582 44.0861L86.0889 47.8044V50.3521H89.4938L94.4631 46.6338L97.845 49.1643L85.9968 58.0298V60.5775H89.4248L94.4861 56.7903L97.868 59.3208L85.9968 68.2207V70.7684H89.4018L109.785 55.5165V52.9859ZM53.7192 21.191L50.3373 18.6605L53.7192 16.1299L57.1011 18.6605L53.7192 21.191ZM80.8895 16.1472L84.2714 18.6777L80.8895 21.2082L77.5076 18.6777L80.8895 16.1472ZM74.0797 21.2254L77.4616 23.7559L67.2929 31.3647L63.911 28.8342L74.0797 21.2254ZM53.6962 51.7121L50.3143 49.1816L74.0797 31.3991L77.4616 33.9296L53.6962 51.7121ZM67.2929 51.7121L63.911 49.1816L67.2929 46.651L70.6748 49.1816L67.2929 51.7121ZM87.6993 36.4429L86.8481 35.806H83.4432V38.3537L84.2944 38.9906L74.1027 46.6166L70.7208 44.0861L87.6993 31.3819L91.0812 33.9124L87.6993 36.4429ZM80.8895 31.3647L77.5076 28.8342L87.6763 21.2254L91.0582 23.7559L80.8895 31.3647ZM101.273 21.2254L104.655 23.7559L101.273 26.2864L97.891 23.7559L101.273 21.2254ZM94.4631 16.1472L97.845 18.6777L94.4631 21.2082L91.1042 18.6777L94.4631 16.1472ZM94.4861 26.3036L97.868 28.8342L94.4861 31.3647L91.1042 28.8514L94.4861 26.3036ZM94.4861 41.5384L91.1042 39.0079L101.273 31.3991L104.655 33.9296L94.4861 41.5384ZM101.273 56.7903L97.891 54.2598L101.273 51.7293L104.655 54.2598L101.273 56.7903Z" fill="#969696"/>
<path d="M41.825 14.8733V12.3083H38.4201L31.6333 17.3694V19.9343H35.0612L41.825 14.8733Z" fill="#969696"/>
<path d="M99.5938 68.2207V70.7684H103.022L109.785 65.7074V63.1597H106.358L99.5938 68.2207Z" fill="#969696"/>
<path d="M41.2498 88.7574C38.6041 88.3786 36.3265 88.0516 36.3265 86.881C36.3265 86.4506 36.7636 85.5039 40.3526 85.5039C42.8832 85.5039 44.5627 86.2096 46.3572 87.2597L49.1179 85.194C47.4845 83.9373 44.9768 82.4741 40.1685 82.4741C34.8541 82.4741 31.4722 84.2988 31.4722 87.2253C31.4722 90.5132 36.2575 91.219 40.0995 91.7699C42.8142 92.1658 45.1378 92.5101 45.1378 93.6807C45.1378 94.6447 43.6884 95.1439 40.8587 95.1439C37.6838 95.1439 34.8771 93.9045 33.8418 93.2159L30.874 95.4366C32.1854 96.6588 36.0964 98.3802 40.7667 98.3802C46.4032 98.3802 50.0611 96.5038 50.0611 93.5946C50.0611 90.014 45.1838 89.3082 41.2498 88.7574Z" fill="#969696"/>
<path d="M72.193 82.8184H61.2881V97.9498H66.1654V92.2346H72.7681C74.8387 92.2346 79.624 91.7698 79.624 87.5351C79.624 84.5914 76.8402 82.8184 72.193 82.8184ZM71.8939 89.3942H66.1884V85.7448H71.8939C72.6301 85.7448 74.9077 85.7448 74.9077 87.5179C74.9077 88.7745 73.8954 89.3942 71.8939 89.3942Z" fill="#969696"/>
<path d="M109.762 95.385L102.745 90.1518L109.118 85.3834V82.8357H105.667L99.3173 87.5697L92.9906 82.8357H89.5397V85.4179L95.8664 90.1346L88.8955 95.3506V97.9499H92.3234L99.3173 92.7168L106.288 97.9499H109.762V95.385Z" fill="#969696"/>
<path d="M114.156 82.8184C115.468 82.8184 116.526 83.6102 116.526 84.5914C116.526 85.5727 115.468 86.3645 114.156 86.3645C112.845 86.3645 111.787 85.5727 111.787 84.5914C111.787 83.6102 112.845 82.8184 114.156 82.8184ZM114.156 85.9858C115.215 85.9858 115.997 85.4005 115.997 84.6087C115.997 83.8168 115.215 83.2315 114.156 83.2315C113.098 83.2315 112.316 83.8168 112.316 84.6087C112.316 85.4005 113.098 85.9858 114.156 85.9858ZM115.353 85.2972V85.5382L115.284 85.5899H115.077L114.938 85.5382L114.202 84.8497L114.064 84.798H113.673L113.604 84.8497V85.5382L113.535 85.5899H113.144L113.075 85.5382V83.6619L113.144 83.6102H114.455C114.984 83.6102 115.307 83.7996 115.307 84.1955C115.307 84.4365 115.169 84.6431 114.777 84.7464V84.798L115.353 85.2972ZM114.501 83.9545H113.719L113.65 84.0062V84.4021L113.719 84.4537H114.501C114.708 84.4537 114.823 84.3504 114.823 84.2127C114.823 84.0578 114.685 83.9545 114.501 83.9545Z" fill="#969696"/>
</svg>
