<svg width="737" height="107" viewBox="0 0 737 107" fill="none" xmlns="http://www.w3.org/2000/svg">
<g clip-path="url(#clip0)">
<g style="mix-blend-mode:multiply" opacity="0.19">
<path d="M6.28009 26.64C14.7901 17.79 34.9001 13.54 61.1001 17.81C87.3001 22.08 90.3301 30 92.1601 34.86C93.9901 39.72 98.2501 69.27 95.8101 74.15C93.3701 79.03 92.1601 86.94 77.5401 90.59C62.9201 94.24 36.7301 97.59 32.1601 97.59C27.5901 97.59 3.53009 98.82 1.40009 75.37C-0.729914 51.92 -1.33991 34.56 6.28009 26.64Z" fill="#88BDEB"/>
</g>
<path d="M30.7602 22C30.7465 24.2758 30.3406 26.5322 29.5602 28.67C28.7582 30.9547 27.7542 33.1635 26.5602 35.27C25.3304 37.4332 23.9712 39.5204 22.4902 41.52C21.0002 43.52 19.4902 45.37 18.1202 47.06L14.6802 49.71V50L19.3502 49.09H31.7302V56.21H4.47021V51.89C5.47021 50.81 6.67022 49.55 7.96022 48.11C9.25022 46.67 10.5602 45.11 11.8802 43.51C13.2002 41.91 14.4802 40.22 15.7302 38.51C16.9524 36.8393 18.0776 35.0998 19.1002 33.3C20.0352 31.6761 20.8249 29.9728 21.4602 28.21C22.0212 26.7194 22.319 25.1426 22.3402 23.55C22.3992 21.9543 21.8567 20.3947 20.8202 19.18C19.8002 18.0267 18.1935 17.45 16.0002 17.45C14.5442 17.4656 13.1047 17.761 11.7602 18.32C10.4188 18.8429 9.17994 19.5977 8.10022 20.55L4.74021 14.55C6.46249 13.142 8.39631 12.0148 10.4702 11.21C12.8826 10.3399 15.4367 9.9295 18.0002 10C19.7378 9.98165 21.4669 10.2451 23.1202 10.78C24.5938 11.2525 25.9551 12.0216 27.1202 13.04C28.268 14.0725 29.173 15.3463 29.7702 16.77C30.4608 18.4254 30.798 20.2068 30.7602 22Z" fill="#13385A"/>
<path d="M39.3002 33.5C39.3002 25.56 40.6602 19.6567 43.3802 15.79C46.1002 11.9234 50.0069 9.99335 55.1002 10C60.5402 10 64.5402 11.91 67.1002 15.73C69.6602 19.55 70.9269 25.4734 70.9002 33.5C70.9002 41.5 69.5302 47.4367 66.7902 51.31C64.0502 55.1834 60.1202 57.1267 55.0002 57.14C49.6002 57.14 45.6269 55.1 43.0802 51.02C40.5336 46.94 39.2736 41.1 39.3002 33.5ZM47.7202 33.5C47.7202 38.7733 48.2936 42.8434 49.4402 45.71C50.5869 48.5767 52.4736 50.0067 55.1002 50C57.6502 50 59.5102 48.68 60.7002 46C61.8902 43.32 62.4802 39.18 62.4802 33.43C62.4802 28.21 61.9202 24.1767 60.8002 21.33C59.6802 18.4834 57.7469 17.08 55.0002 17.12C52.4136 17.12 50.5469 18.4534 49.4002 21.12C48.2902 23.81 47.7202 27.94 47.7202 33.5Z" fill="#13385A"/>
<path d="M76.21 30.85H86.7V19.91H94.27V30.85H104.83V38H94.27V49H86.7V38H76.21V30.85Z" fill="#13385A"/>
</g>
<g clip-path="url(#clip1)">
<g style="mix-blend-mode:multiply" opacity="0.19">
<path d="M148.53 35.36C157.04 26.51 177.16 22.26 203.35 26.52C229.54 30.78 232.58 38.71 234.41 43.58C236.24 48.45 240.5 78 238.07 82.87C235.64 87.74 234.41 95.66 219.79 99.31C205.17 102.96 178.98 106.31 174.41 106.31C169.84 106.31 145.79 107.54 143.65 84.08C141.51 60.62 140.91 43.27 148.53 35.36Z" fill="#88BDEB"/>
</g>
<path d="M171.38 63C171.829 64.3203 171.804 65.7559 171.31 67.06C170.809 68.3808 169.858 69.4826 168.625 70.1713C167.392 70.86 165.955 71.0914 164.568 70.8249C163.18 70.5583 161.932 69.8108 161.041 68.7141C160.151 67.6173 159.676 66.2416 159.701 64.8292C159.725 63.4168 160.247 62.0583 161.174 60.9929C162.102 59.9275 163.376 59.2235 164.771 59.0049C166.167 58.7863 167.595 59.0672 168.804 59.798C170.013 60.5288 170.925 61.6627 171.38 63Z" fill="#C2E4F9"/>
<path d="M197.09 71.3C197.893 72.3844 198.307 73.7078 198.265 75.0564C198.223 76.405 197.728 77.7001 196.859 78.7326C195.99 79.7651 194.799 80.4746 193.477 80.7467C192.156 81.0188 190.781 80.8375 189.575 80.2321C188.37 79.6267 187.403 78.6325 186.832 77.4102C186.261 76.1878 186.118 74.8086 186.427 73.4952C186.736 72.1818 187.479 71.011 188.536 70.1718C189.592 69.3326 190.901 68.874 192.25 68.87C193.19 68.8719 194.117 69.0925 194.957 69.5142C195.797 69.936 196.527 70.5473 197.09 71.3Z" fill="#C2E4F9"/>
<path d="M214 51.35C214.854 50.212 216.084 49.4143 217.471 49.0993C218.858 48.7842 220.312 48.9723 221.574 49.63C222.835 50.2876 223.822 51.3721 224.358 52.6898C224.894 54.0075 224.944 55.4728 224.5 56.8242C224.055 58.1756 223.145 59.3252 221.932 60.0678C220.719 60.8104 219.281 61.0978 217.875 60.8786C216.47 60.6595 215.188 59.9481 214.258 58.8713C213.329 57.7945 212.812 56.4225 212.8 55C212.789 53.6847 213.211 52.4022 214 51.35Z" fill="#C2E4F9"/>
<path d="M198.29 55C198.348 56.4423 197.884 57.8572 196.983 58.9851C196.082 60.1131 194.805 60.8785 193.386 61.141C191.966 61.4035 190.5 61.1454 189.255 60.4142C188.011 59.683 187.072 58.5277 186.61 57.16C186.081 55.7789 186.081 54.2511 186.61 52.87C187.071 51.5057 188.008 50.353 189.249 49.6223C190.491 48.8916 191.953 48.6317 193.37 48.8901C194.787 49.1485 196.063 49.9079 196.967 51.0296C197.87 52.1514 198.34 53.5606 198.29 55Z" fill="#C2E4F9"/>
<path d="M171.31 42.88C171.826 44.2462 171.826 45.7538 171.31 47.12C170.813 48.4506 169.864 49.5645 168.63 50.267C167.395 50.9694 165.953 51.216 164.556 50.9635C163.158 50.711 161.893 49.9756 160.982 48.8856C160.072 47.7957 159.573 46.4204 159.573 45C159.573 43.5796 160.072 42.2044 160.982 41.1144C161.893 40.0244 163.158 39.289 164.556 39.0365C165.953 38.784 167.395 39.0306 168.63 39.7331C169.864 40.4356 170.813 41.5494 171.31 42.88Z" fill="#C2E4F9"/>
<path d="M197.09 38.65C196.447 39.5294 195.577 40.2172 194.573 40.6397C193.569 41.0622 192.469 41.2035 191.391 41.0483C190.313 40.8931 189.297 40.4473 188.453 39.7588C187.609 39.0703 186.969 38.165 186.6 37.14C186.084 35.7738 186.084 34.2662 186.6 32.9C187.055 31.5308 187.989 30.3715 189.229 29.6345C190.47 28.8976 191.934 28.6324 193.354 28.8875C194.775 29.1426 196.055 29.901 196.962 31.0236C197.868 32.1463 198.34 33.558 198.29 35C198.295 36.3144 197.874 37.595 197.09 38.65Z" fill="#C2E4F9"/>
<path d="M214 38.65C213.197 37.5652 212.783 36.2414 212.825 34.8923C212.867 33.5433 213.363 32.2479 214.233 31.2155C215.102 30.183 216.294 29.4738 217.616 29.2025C218.938 28.9312 220.313 29.1135 221.519 29.7201C222.725 30.3267 223.691 31.3221 224.261 32.5454C224.831 33.7688 224.972 35.1486 224.661 36.462C224.35 37.7754 223.605 38.9456 222.547 39.7836C221.489 40.6215 220.18 41.0783 218.83 41.08C217.891 41.0812 216.965 40.8619 216.126 40.4399C215.287 40.0178 214.559 39.4048 214 38.65Z" fill="#C2E4F9"/>
<path d="M198.29 15.07C198.289 16.3773 197.869 17.6499 197.09 18.7C196.447 19.5794 195.577 20.2672 194.573 20.6897C193.569 21.1122 192.469 21.2535 191.391 21.0983C190.313 20.9431 189.297 20.4973 188.453 19.8088C187.609 19.1203 186.969 18.215 186.6 17.19C186.343 16.5127 186.211 15.7944 186.21 15.07C186.21 13.4681 186.846 11.9318 187.979 10.7991C189.112 9.66635 190.648 9.03 192.25 9.03C193.852 9.03 195.388 9.66635 196.521 10.7991C197.654 11.9318 198.29 13.4681 198.29 15.07Z" fill="#C2E4F9"/>
<path d="M171.31 22.93C171.83 24.2921 171.83 25.7979 171.31 27.16C170.814 28.4915 169.866 29.6064 168.632 30.31C167.397 31.0135 165.955 31.2609 164.557 31.009C163.158 30.757 161.893 30.0218 160.982 28.9316C160.071 27.8415 159.571 26.4658 159.571 25.045C159.571 23.6242 160.071 22.2485 160.982 21.1584C161.893 20.0682 163.158 19.333 164.557 19.081C165.955 18.8291 167.397 19.0765 168.632 19.78C169.866 20.4836 170.814 21.5985 171.31 22.93Z" fill="#C2E4F9"/>
<path d="M140 45H153.77" stroke="#13385A" stroke-width="2.03" stroke-miterlimit="10"/>
<path d="M149.62 49.32L153.95 45L149.62 40.67" stroke="#13385A" stroke-width="2.03" stroke-miterlimit="10"/>
<path d="M229.1 35.02H242.87" stroke="#13385A" stroke-width="2.03" stroke-miterlimit="10"/>
<path d="M238.72 39.35L243.05 35.02L238.72 30.7" stroke="#13385A" stroke-width="2.03" stroke-miterlimit="10"/>
<path d="M229.1 54.98H242.87" stroke="#13385A" stroke-width="2.03" stroke-miterlimit="10"/>
<path d="M238.72 59.3L243.05 54.98L238.72 50.65" stroke="#13385A" stroke-width="2.03" stroke-miterlimit="10"/>
<path d="M140 25.04H153.77" stroke="#13385A" stroke-width="2.03" stroke-miterlimit="10"/>
<path d="M149.62 29.37L153.95 25.05L149.62 20.72" stroke="#13385A" stroke-width="2.03" stroke-miterlimit="10"/>
<path d="M140 64.95H153.77" stroke="#13385A" stroke-width="2.03" stroke-miterlimit="10"/>
<path d="M149.62 69.27L153.95 64.95L149.62 60.63" stroke="#13385A" stroke-width="2.03" stroke-miterlimit="10"/>
<path d="M186.6 17.19C186.343 16.5127 186.211 15.7944 186.21 15.07C186.205 13.5538 186.767 12.0906 187.787 10.9682C188.806 9.84583 190.209 9.14559 191.718 9.00528C193.228 8.86497 194.735 9.29473 195.944 10.21C197.153 11.1253 197.975 12.4598 198.25 13.951C198.524 15.4422 198.23 16.982 197.427 18.2676C196.623 19.5531 195.367 20.4913 193.906 20.8974C192.445 21.3035 190.885 21.1483 189.533 20.4622C188.181 19.7761 187.135 18.6088 186.6 17.19V17.19Z" stroke="#13385A" stroke-width="2.03" stroke-miterlimit="10"/>
<path d="M198.29 35C198.351 36.446 197.887 37.8653 196.984 38.9962C196.081 40.1272 194.799 40.8936 193.376 41.1542C191.952 41.4148 190.482 41.1521 189.237 40.4144C187.992 39.6767 187.055 38.5138 186.6 37.14C186.084 35.7738 186.084 34.2662 186.6 32.9C187.055 31.5308 187.989 30.3715 189.229 29.6345C190.47 28.8976 191.934 28.6324 193.354 28.8875C194.775 29.1426 196.055 29.901 196.962 31.0236C197.868 32.1463 198.34 33.558 198.29 35V35Z" stroke="#13385A" stroke-width="2.03" stroke-miterlimit="10"/>
<path d="M198.29 55C198.348 56.4423 197.884 57.8572 196.983 58.9851C196.082 60.1131 194.805 60.8785 193.386 61.141C191.966 61.4035 190.5 61.1454 189.255 60.4142C188.011 59.683 187.072 58.5277 186.61 57.16C186.081 55.7789 186.081 54.2511 186.61 52.87C187.071 51.5057 188.008 50.353 189.249 49.6223C190.491 48.8916 191.953 48.6317 193.37 48.8901C194.787 49.1485 196.063 49.9079 196.967 51.0296C197.87 52.1514 198.34 53.5606 198.29 55V55Z" stroke="#13385A" stroke-width="2.03" stroke-miterlimit="10"/>
<path d="M197.09 71.3C197.893 72.3844 198.307 73.7078 198.265 75.0564C198.223 76.405 197.728 77.7001 196.859 78.7326C195.99 79.7651 194.799 80.4746 193.477 80.7467C192.156 81.0188 190.781 80.8375 189.575 80.2321C188.37 79.6267 187.403 78.6325 186.832 77.4102C186.261 76.1878 186.118 74.8086 186.427 73.4952C186.736 72.1818 187.479 71.011 188.536 70.1718C189.592 69.3326 190.901 68.874 192.25 68.87C193.19 68.8719 194.117 69.0925 194.957 69.5142C195.797 69.936 196.527 70.5473 197.09 71.3V71.3Z" stroke="#13385A" stroke-width="2.03" stroke-miterlimit="10"/>
<path d="M171.31 22.93C171.83 24.2921 171.83 25.7979 171.31 27.16C170.814 28.4915 169.866 29.6064 168.632 30.31C167.397 31.0135 165.955 31.2609 164.557 31.009C163.158 30.757 161.893 30.0218 160.982 28.9316C160.071 27.8415 159.571 26.4658 159.571 25.045C159.571 23.6242 160.071 22.2485 160.982 21.1584C161.893 20.0682 163.158 19.333 164.557 19.081C165.955 18.8291 167.397 19.0765 168.632 19.78C169.866 20.4836 170.814 21.5985 171.31 22.93V22.93Z" stroke="#13385A" stroke-width="2.03" stroke-miterlimit="10"/>
<path d="M171.31 42.88C171.826 44.2462 171.826 45.7538 171.31 47.12C170.813 48.4506 169.864 49.5645 168.63 50.267C167.395 50.9695 165.953 51.216 164.556 50.9635C163.158 50.711 161.893 49.9756 160.982 48.8856C160.072 47.7957 159.573 46.4204 159.573 45C159.573 43.5796 160.072 42.2044 160.982 41.1144C161.893 40.0244 163.158 39.289 164.556 39.0365C165.953 38.784 167.395 39.0306 168.63 39.7331C169.864 40.4356 170.813 41.5494 171.31 42.88V42.88Z" stroke="#13385A" stroke-width="2.03" stroke-miterlimit="10"/>
<path d="M171.38 63C171.829 64.3203 171.804 65.7559 171.31 67.06C170.809 68.3808 169.858 69.4826 168.625 70.1713C167.392 70.86 165.955 71.0914 164.568 70.8249C163.18 70.5583 161.932 69.8108 161.041 68.7141C160.151 67.6173 159.676 66.2416 159.701 64.8292C159.725 63.4168 160.247 62.0583 161.174 60.9929C162.102 59.9275 163.376 59.2235 164.771 59.0049C166.167 58.7863 167.595 59.0672 168.804 59.798C170.013 60.5288 170.925 61.6627 171.38 63V63Z" stroke="#13385A" stroke-width="2.03" stroke-miterlimit="10"/>
<path d="M212.8 35C212.794 36.4433 213.303 37.8414 214.235 38.9434C215.167 40.0453 216.462 40.7791 217.886 41.0131C219.31 41.247 220.771 40.9658 222.007 40.2198C223.242 39.4739 224.172 38.3121 224.628 36.9428C225.085 35.5736 225.038 34.0865 224.497 32.7483C223.956 31.4102 222.956 30.3086 221.677 29.6412C220.397 28.9738 218.921 28.7843 217.514 29.1066C216.107 29.4289 214.861 30.242 214 31.4C213.221 32.4386 212.8 33.7018 212.8 35V35Z" stroke="#13385A" stroke-width="2.03" stroke-miterlimit="10"/>
<path d="M212.8 55C212.806 56.4412 213.325 57.8331 214.264 58.9267C215.202 60.0203 216.5 60.7442 217.923 60.969C219.347 61.1938 220.804 60.9048 222.034 60.1536C223.264 59.4025 224.186 58.2382 224.636 56.8691C225.086 55.5 225.035 54.0155 224.49 52.681C223.946 51.3465 222.945 50.2493 221.666 49.5855C220.386 48.9217 218.913 48.7347 217.508 49.058C216.104 49.3813 214.86 50.1937 214 51.35C213.211 52.4022 212.789 53.6847 212.8 55V55Z" stroke="#13385A" stroke-width="2.03" stroke-miterlimit="10"/>
<path d="M214.01 31.4L197.09 18.7" stroke="#13385A" stroke-width="2.03" stroke-miterlimit="10"/>
<path d="M214.01 58.6L197.09 71.3" stroke="#13385A" stroke-width="2.03" stroke-miterlimit="10"/>
<path d="M212.8 54.97H198.29" stroke="#13385A" stroke-width="2.03" stroke-miterlimit="10"/>
<path d="M212.8 35.02H198.29" stroke="#13385A" stroke-width="2.03" stroke-miterlimit="10"/>
<path d="M186.6 37.14L171.31 42.88" stroke="#13385A" stroke-width="2.03" stroke-miterlimit="10"/>
<path d="M186.6 52.85L171.31 47.12" stroke="#13385A" stroke-width="2.03" stroke-miterlimit="10"/>
<path d="M186.6 17.19L171.32 22.93H171.31" stroke="#13385A" stroke-width="2.03" stroke-miterlimit="10"/>
<path d="M186.6 72.8L171.32 67.07H171.31" stroke="#13385A" stroke-width="2.03" stroke-miterlimit="10"/>
<path d="M186.61 57.14L171.38 63.01H171.37" stroke="#13385A" stroke-width="2.03" stroke-miterlimit="10"/>
<path d="M186.6 32.9L171.31 27.16" stroke="#13385A" stroke-width="2.03" stroke-miterlimit="10"/>
<path d="M197.08 38.65H197.09L205.55 45L214.01 51.35" stroke="#13385A" stroke-width="2.03" stroke-miterlimit="10"/>
<path d="M214.01 38.65L205.55 45L197.09 51.35H197.08" stroke="#13385A" stroke-width="2.03" stroke-miterlimit="10"/>
</g>
<g clip-path="url(#clip2)">
<g style="mix-blend-mode:multiply" opacity="0.19">
<path d="M251.28 35.5C259.79 26.65 279.9 22.41 306.1 26.67C332.3 30.93 335.33 38.85 337.16 43.73C338.99 48.61 343.25 78.14 340.81 83C338.37 87.86 337.16 95.8 322.54 99.45C307.92 103.1 281.73 106.45 277.16 106.45C272.59 106.45 248.53 107.68 246.4 84.23C244.27 60.78 243.66 43.42 251.28 35.5Z" fill="#88BDEB"/>
</g>
<path d="M310.87 93.87C310.87 97.48 304.87 100.39 300.06 100.39C295.25 100.39 289.26 97.48 289.26 93.87H310.87Z" fill="#C2E4F9"/>
<path d="M311.53 88.4L310.87 93.87H289.26L288.59 88.4H311.53Z" fill="#C2E4F9"/>
<path d="M312.19 82.94L311.53 88.4H288.59L287.93 82.94H287.94H312.19Z" fill="#C2E4F9"/>
<path d="M312.85 77.47L312.19 82.94H287.94H287.93L287.27 77.47H312.85Z" fill="#C2E4F9"/>
<path d="M318.45 39.55V45C316.829 45.2831 315.177 45.3437 313.54 45.18L311.63 49.8C312.916 50.8255 314.05 52.0274 315 53.37L311.19 57.19C309.835 56.2489 308.62 55.1211 307.58 53.84L302.97 55.75C303.139 57.3937 303.078 59.0529 302.79 60.68H297.39C297.107 59.0524 297.046 57.3939 297.21 55.75L292.6 53.84C291.561 55.1185 290.35 56.2461 289 57.19L285.18 53.37C286.124 52.0172 287.251 50.8023 288.53 49.76L286.62 45.14C284.971 45.3197 283.306 45.2726 281.67 45V39.55C283.294 39.2619 284.95 39.2013 286.59 39.37L288.5 34.75C287.221 33.7077 286.094 32.4927 285.15 31.14L289 27.31C290.348 28.2603 291.559 29.3908 292.6 30.67L297.21 28.76C297.046 27.1161 297.107 25.4576 297.39 23.83H302.79C303.078 25.457 303.139 27.1163 302.97 28.76L307.58 30.67C308.622 29.3883 309.837 28.2575 311.19 27.31L315 31.14C314.062 32.4947 312.938 33.7101 311.66 34.75L313.57 39.37C315.197 39.2041 316.839 39.2647 318.45 39.55ZM306.63 42.26L303.35 36.56H296.78L293.5 42.26L296.78 48H303.35L306.63 42.26Z" fill="#C2E4F9"/>
<path d="M300.06 0V8.69" stroke="#13385A" stroke-width="2.35" stroke-miterlimit="10"/>
<path d="M283.13 3.37L286.45 11.4" stroke="#13385A" stroke-width="2.35" stroke-miterlimit="10"/>
<path d="M268.77 12.99L274.9 19.13" stroke="#13385A" stroke-width="2.35" stroke-miterlimit="10"/>
<path d="M259.18 27.37L267.19 30.7" stroke="#13385A" stroke-width="2.35" stroke-miterlimit="10"/>
<path d="M255.81 44.34H264.48" stroke="#13385A" stroke-width="2.35" stroke-miterlimit="10"/>
<path d="M259.18 61.3L267.19 57.98" stroke="#13385A" stroke-width="2.35" stroke-miterlimit="10"/>
<path d="M340.95 61.3L332.94 57.98" stroke="#13385A" stroke-width="2.35" stroke-miterlimit="10"/>
<path d="M344.32 44.34H335.65" stroke="#13385A" stroke-width="2.35" stroke-miterlimit="10"/>
<path d="M340.95 27.37L332.94 30.7" stroke="#13385A" stroke-width="2.35" stroke-miterlimit="10"/>
<path d="M331.35 12.99L325.22 19.13" stroke="#13385A" stroke-width="2.35" stroke-miterlimit="10"/>
<path d="M317 3.37L313.68 11.4" stroke="#13385A" stroke-width="2.35" stroke-miterlimit="10"/>
<path d="M287.27 77.47V77.32C287.27 75.3794 286.818 73.4655 285.95 71.7298C285.083 69.9941 283.823 68.4843 282.27 67.32C277.301 63.5918 273.631 58.3948 271.78 52.465C269.929 46.5353 269.99 40.1735 271.955 34.2805C273.92 28.3875 277.689 23.262 282.729 19.6301C287.769 15.9981 293.823 14.0438 300.035 14.0438C306.247 14.0438 312.302 15.9981 317.341 19.6301C322.381 23.262 326.15 28.3875 328.115 34.2805C330.08 40.1735 330.141 46.5353 328.29 52.465C326.439 58.3948 322.769 63.5918 317.8 67.32C316.246 68.4833 314.986 69.9928 314.118 71.7288C313.25 73.4647 312.799 75.3792 312.8 77.32V77.47" stroke="#13385A" stroke-width="2.35" stroke-miterlimit="10"/>
<path d="M310.87 93.87H289.26L288.59 88.4L287.93 82.94L287.27 77.47H312.85L312.19 82.94L311.53 88.4L310.87 93.87Z" stroke="#13385A" stroke-width="2.35" stroke-miterlimit="10"/>
<path d="M312.19 82.94H287.94" stroke="#13385A" stroke-width="2.35" stroke-miterlimit="10"/>
<path d="M311.53 88.4H288.59" stroke="#13385A" stroke-width="2.35" stroke-miterlimit="10"/>
<path d="M310.87 93.87C310.87 97.48 304.87 100.39 300.06 100.39C295.25 100.39 289.26 97.48 289.26 93.87" stroke="#13385A" stroke-width="2.35" stroke-miterlimit="10"/>
<path d="M297.18 28.76C297.016 27.1161 297.077 25.4576 297.36 23.83H302.76C303.048 25.457 303.109 27.1163 302.94 28.76L307.55 30.67C308.592 29.3883 309.807 28.2575 311.16 27.31L315 31.14C314.062 32.4947 312.938 33.7101 311.66 34.75L313.57 39.37C315.207 39.2013 316.86 39.2619 318.48 39.55V45C316.859 45.2831 315.207 45.3437 313.57 45.18L311.66 49.8C312.935 50.8277 314.059 52.0294 315 53.37L311.19 57.19C309.835 56.2489 308.62 55.1211 307.58 53.84L302.97 55.75C303.139 57.3937 303.078 59.0529 302.79 60.68H297.39C297.107 59.0524 297.046 57.3939 297.21 55.75L292.6 53.84C291.561 55.1185 290.35 56.2461 289 57.19L285.18 53.37C286.124 52.0172 287.251 50.8023 288.53 49.76L286.62 45.14C284.971 45.3197 283.306 45.2726 281.67 45V39.55C283.294 39.2619 284.95 39.2013 286.59 39.37L288.5 34.75C287.221 33.7077 286.094 32.4927 285.15 31.14L289 27.31C290.348 28.2603 291.559 29.3908 292.6 30.67L297.18 28.76Z" stroke="#13385A" stroke-width="2.35" stroke-miterlimit="10"/>
<path d="M303.35 36.56H296.78L293.49 42.26L296.78 47.95H303.35L306.63 42.26L303.35 36.56Z" stroke="#13385A" stroke-width="2.35" stroke-miterlimit="10"/>
</g>
<g clip-path="url(#clip3)">
<g style="mix-blend-mode:multiply" opacity="0.19">
<path d="M351.28 35.38C359.79 26.53 379.9 22.29 406.1 26.55C432.3 30.81 435.33 38.73 437.16 43.61C438.99 48.49 443.25 78 440.81 82.89C438.37 87.78 437.16 95.68 422.54 99.34C407.92 103 381.73 106.34 377.16 106.34C372.59 106.34 348.53 107.56 346.4 84.11C344.27 60.66 343.66 43.3 351.28 35.38Z" fill="#88BDEB"/>
</g>
<path d="M442.41 43.26C442.451 46.9992 441.35 50.6618 439.254 53.7586C437.158 56.8553 434.167 59.2386 430.68 60.59V37.59C430.68 35.37 424.93 33.59 417.83 33.59C410.73 33.59 405 35.38 405 37.6V61.6H391.43V37.6C391.43 35.38 385.68 33.6 378.59 33.6C371.5 33.6 365.74 35.4 365.74 37.6V61.49C357.06 60.39 350.32 52.64 350.32 43.26C350.32 34.04 356.84 26.38 365.32 25.08C365.32 24.52 365.25 23.95 365.25 23.38C365.23 13.25 373.1 5 382.77 5C385.337 5.01196 387.868 5.59837 390.178 6.71622C392.488 7.83407 394.518 9.45498 396.12 11.46C399.577 8.77287 403.832 7.31595 408.21 7.32C418.34 7.32 426.78 15.1 428.36 25.25C432.405 26.2004 436.003 28.5043 438.558 31.7799C441.113 35.0555 442.473 39.106 442.41 43.26Z" fill="#C2E4F9"/>
<path d="M365.74 61.49C357.06 60.39 350.32 52.64 350.32 43.26C350.32 34.04 356.84 26.38 365.32 25.08C365.32 24.52 365.25 23.95 365.25 23.38C365.23 13.25 373.1 5 382.77 5C385.337 5.01196 387.868 5.59837 390.178 6.71622C392.488 7.83407 394.518 9.45498 396.12 11.46C399.577 8.77287 403.832 7.31595 408.21 7.32C418.34 7.32 426.78 15.1 428.36 25.25C432.394 26.2098 435.979 28.5164 438.524 31.7891C441.07 35.0617 442.423 39.1045 442.36 43.25C442.407 46.985 441.314 50.6456 439.228 53.7437C437.141 56.8417 434.159 59.23 430.68 60.59" stroke="#13385A" stroke-width="2.03" stroke-miterlimit="10"/>
<path d="M421.13 24.39C420.167 21.6296 418.386 19.2279 416.024 17.5041C413.663 15.7804 410.833 14.8163 407.91 14.74C406.825 14.7401 405.745 14.8676 404.69 15.12" stroke="#13385A" stroke-width="2.03" stroke-miterlimit="10"/>
<path d="M404.99 61.62H391.43" stroke="#13385A" stroke-width="2.03" stroke-miterlimit="10"/>
<path d="M391.43 37.6C391.43 39.83 385.68 41.6 378.59 41.6C371.5 41.6 365.74 39.8 365.74 37.6C365.74 35.4 371.49 33.6 378.59 33.6C385.69 33.6 391.43 35.38 391.43 37.6Z" stroke="#13385A" stroke-width="2.03" stroke-miterlimit="10"/>
<path d="M365.74 46.24C365.74 48.47 371.49 50.24 378.59 50.24C385.69 50.24 391.43 48.44 391.43 46.24" stroke="#13385A" stroke-width="2.03" stroke-miterlimit="10"/>
<path d="M365.74 54.87C365.74 57.1 371.49 58.87 378.59 58.87C385.69 58.87 391.43 57.07 391.43 54.87" stroke="#13385A" stroke-width="2.03" stroke-miterlimit="10"/>
<path d="M365.74 63.51C365.74 65.74 371.49 67.51 378.59 67.51C385.69 67.51 391.43 65.71 391.43 63.51" stroke="#13385A" stroke-width="2.03" stroke-miterlimit="10"/>
<path d="M365.74 72.15C365.74 74.36 371.43 76.15 378.47 76.15H378.59C385.68 76.15 391.43 74.34 391.43 72.15" stroke="#13385A" stroke-width="2.03" stroke-miterlimit="10"/>
<path d="M365.74 37.6V46.24V54.87V61.49V63.51V72.15" stroke="#13385A" stroke-width="2.03" stroke-miterlimit="10"/>
<path d="M391.43 37.6V46.24V54.87V61.63V63.51V72.15" stroke="#13385A" stroke-width="2.03" stroke-miterlimit="10"/>
<path d="M377.55 46.02H379.62" stroke="#13385A" stroke-width="2.03" stroke-miterlimit="10"/>
<path d="M377.55 54.72H379.62" stroke="#13385A" stroke-width="2.03" stroke-miterlimit="10"/>
<path d="M377.55 63.44H379.62" stroke="#13385A" stroke-width="2.03" stroke-miterlimit="10"/>
<path d="M377.55 72.15H379.62" stroke="#13385A" stroke-width="2.03" stroke-miterlimit="10"/>
<path d="M430.68 37.6C430.68 39.83 424.93 41.6 417.83 41.6C410.73 41.6 405 39.83 405 37.6C405 35.37 410.75 33.6 417.84 33.6C424.93 33.6 430.68 35.38 430.68 37.6Z" stroke="#13385A" stroke-width="2.03" stroke-miterlimit="10"/>
<path d="M405 46.24C405 48.47 410.75 50.24 417.84 50.24C424.93 50.24 430.69 48.44 430.69 46.24" stroke="#13385A" stroke-width="2.03" stroke-miterlimit="10"/>
<path d="M405 54.87C405 57.1 410.75 58.87 417.84 58.87C424.93 58.87 430.69 57.07 430.69 54.87" stroke="#13385A" stroke-width="2.03" stroke-miterlimit="10"/>
<path d="M405 63.51C405 65.74 410.75 67.51 417.84 67.51C424.93 67.51 430.69 65.71 430.69 63.51" stroke="#13385A" stroke-width="2.03" stroke-miterlimit="10"/>
<path d="M405 72.15C405 74.37 410.75 76.15 417.84 76.15H417.95C424.95 76.15 430.69 74.33 430.69 72.15" stroke="#13385A" stroke-width="2.03" stroke-miterlimit="10"/>
<path d="M404.99 37.6V46.24V54.87V61.63V63.51V72.15" stroke="#13385A" stroke-width="2.03" stroke-miterlimit="10"/>
<path d="M430.68 37.6V46.24V54.87V60.59V63.51V72.15" stroke="#13385A" stroke-width="2.03" stroke-miterlimit="10"/>
<path d="M416.8 46.02H418.87" stroke="#13385A" stroke-width="2.03" stroke-miterlimit="10"/>
<path d="M416.8 54.72H418.87" stroke="#13385A" stroke-width="2.03" stroke-miterlimit="10"/>
<path d="M416.8 63.44H418.87" stroke="#13385A" stroke-width="2.03" stroke-miterlimit="10"/>
<path d="M416.8 72.15H418.87" stroke="#13385A" stroke-width="2.03" stroke-miterlimit="10"/>
<path d="M418 76.81V82.14C418.002 83.075 417.819 84.0011 417.462 84.8655C417.105 85.7298 416.582 86.5154 415.922 87.1775C415.262 87.8396 414.478 88.3652 413.614 88.7242C412.751 89.0832 411.825 89.2687 410.89 89.27H385.57C384.636 89.2687 383.711 89.0832 382.848 88.724C381.985 88.3649 381.202 87.8391 380.542 87.1769C379.883 86.5147 379.36 85.729 379.005 84.8647C378.649 84.0004 378.468 83.0745 378.47 82.14V76.81" stroke="#13385A" stroke-width="2.03" stroke-miterlimit="10"/>
</g>
<g clip-path="url(#clip4)">
<g style="mix-blend-mode:multiply" opacity="0.19">
<path d="M450.28 35.5C458.79 26.65 478.9 22.4 505.1 26.67C531.3 30.94 534.33 38.85 536.16 43.67C537.99 48.49 542.25 78.14 539.81 83C537.37 87.86 536.16 95.8 521.54 99.45C506.92 103.1 480.73 106.45 476.16 106.45C471.59 106.45 447.53 107.68 445.4 84.23C443.27 60.78 442.66 43.42 450.28 35.5Z" fill="#88BDEB"/>
</g>
<path d="M496.29 66.19C496.601 65.755 496.872 65.2931 497.1 64.81C497.329 65.2931 497.6 65.755 497.91 66.19C498.175 66.4959 498.474 66.771 498.8 67.01C500.99 68.56 504.2 68.01 506.57 65.86L509.15 65.57C510.292 65.0825 511.278 64.2903 512 63.28C513.46 61.28 513.73 58.95 512.81 57.5L514.81 55.99C515.455 55.0658 515.863 53.9982 516 52.88C516.182 51.9751 516.14 51.0396 515.879 50.1545C515.617 49.2693 515.144 48.4612 514.5 47.8L515.75 45.53C515.97 44.3208 515.849 43.0743 515.4 41.93C515.083 40.9564 514.518 40.0821 513.761 39.393C513.003 38.7039 512.079 38.2239 511.08 38L511.71 35.49C511.444 34.2116 510.736 33.0679 509.71 32.26C508.802 31.43 507.66 30.8994 506.44 30.74L504.68 28.9C504.165 28.559 503.606 28.2867 503.02 28.09C500.34 27.16 497.71 27.84 497.02 29.64V30.64V29.64C496.38 27.84 493.74 27.16 491.02 28.09C490.434 28.2867 489.876 28.559 489.36 28.9L487.6 30.74C486.38 30.8994 485.239 31.43 484.33 32.26C483.315 33.0774 482.609 34.2169 482.33 35.49L483 38.07C482.041 38.3142 481.158 38.7956 480.432 39.4701C479.707 40.1446 479.163 40.9904 478.85 41.93C478.406 43.0753 478.285 44.3206 478.5 45.53L479.7 47.8C479.06 48.4631 478.589 49.2717 478.33 50.1565C478.07 51.0413 478.029 51.9759 478.21 52.88C478.367 54.0079 478.8 55.0797 479.47 56L481.47 57.51C480.55 58.96 480.82 61.31 482.28 63.29C482.989 64.2932 483.957 65.0848 485.08 65.58L487.66 65.87C490 68 493.21 68.56 495.4 67C495.724 66.7615 496.022 66.4901 496.29 66.19ZM525.42 28.19V67.39L516.27 76.53H477.93L468.78 67.39V28.21L477.93 19.07H516.27L525.42 28.19Z" fill="#B4E0F9"/>
<path d="M497.1 30.69V29.69C497.75 27.89 500.38 27.21 503.1 28.14C503.686 28.3367 504.244 28.609 504.76 28.95" stroke="#13385A" stroke-width="2.03" stroke-miterlimit="10"/>
<path d="M502.59 35.14C500.71 38.06 501.76 42 504.73 41" stroke="#13385A" stroke-width="2.03" stroke-miterlimit="10"/>
<path d="M505.36 50.94L505.29 50.83C504.136 49.3471 502.478 48.3399 500.63 48" stroke="#13385A" stroke-width="2.03" stroke-miterlimit="10"/>
<path d="M505 33.09L506.44 30.77C507.66 30.9294 508.802 31.46 509.71 32.29C510.736 33.0979 511.444 34.2416 511.71 35.52" stroke="#13385A" stroke-width="2.03" stroke-miterlimit="10"/>
<path d="M508.8 38.67L511.08 38C512.074 38.2227 512.993 38.699 513.748 39.3824C514.504 40.0658 515.069 40.9332 515.39 41.9C515.838 43.0442 515.96 44.2908 515.74 45.5" stroke="#13385A" stroke-width="2.03" stroke-miterlimit="10"/>
<path d="M511 47.8H514.5C515.144 48.4612 515.617 49.2693 515.878 50.1545C516.14 51.0396 516.182 51.9751 516 52.88C515.841 54.0089 515.404 55.0807 514.73 56" stroke="#13385A" stroke-width="2.03" stroke-miterlimit="10"/>
<path d="M511 57.08L512.8 57.5C513.72 58.95 513.45 61.3 511.99 63.28C511.282 64.2832 510.314 65.0748 509.19 65.57" stroke="#13385A" stroke-width="2.03" stroke-miterlimit="10"/>
<path d="M497.1 62.3V31.88" stroke="#13385A" stroke-width="2.03" stroke-miterlimit="10"/>
<path d="M505.36 63.32L506.57 65.86C504.2 68 501 68.56 498.8 67C498.473 66.761 498.174 66.4859 497.91 66.18C497.599 65.745 497.328 65.2831 497.1 64.8" stroke="#13385A" stroke-width="2.03" stroke-miterlimit="10"/>
<path d="M508 56.54C504.85 55.43 501.61 57.15 502.52 61.98" stroke="#13385A" stroke-width="2.03" stroke-miterlimit="10"/>
<path d="M506.06 51.75C505.808 51.5198 505.583 51.2615 505.39 50.98V50.98C503.84 48.72 504.18 45.11 507.39 45.33" stroke="#13385A" stroke-width="2.03" stroke-miterlimit="10"/>
<path d="M489.48 28.93C489.996 28.589 490.554 28.3167 491.14 28.12C493.82 27.19 496.46 27.87 497.14 29.67V30.67" stroke="#13385A" stroke-width="2.03" stroke-miterlimit="10"/>
<path d="M491.61 35.14C493.49 38.06 492.43 41.97 489.47 41.01" stroke="#13385A" stroke-width="2.03" stroke-miterlimit="10"/>
<path d="M493.58 48C491.73 48.3345 490.07 49.3428 488.92 50.83L488.86 50.9" stroke="#13385A" stroke-width="2.03" stroke-miterlimit="10"/>
<path d="M482.48 35.52C482.76 34.2469 483.465 33.1074 484.48 32.29C485.389 31.46 486.53 30.9294 487.75 30.77L489.19 33.09" stroke="#13385A" stroke-width="2.03" stroke-miterlimit="10"/>
<path d="M478.46 45.53C478.245 44.3206 478.366 43.0753 478.81 41.93C479.127 40.9857 479.677 40.1366 480.409 39.4618C481.142 38.787 482.033 38.3082 483 38.07H483.16L485.45 38.71" stroke="#13385A" stroke-width="2.03" stroke-miterlimit="10"/>
<path d="M479.47 56C478.801 55.0826 478.368 54.0145 478.21 52.89C478.028 51.9844 478.068 51.0479 478.327 50.1612C478.587 49.2745 479.058 48.4642 479.7 47.8H483.25" stroke="#13385A" stroke-width="2.03" stroke-miterlimit="10"/>
<path d="M485.05 65.57C483.926 65.0748 482.958 64.2832 482.25 63.28C480.79 61.28 480.52 58.95 481.44 57.5L483.24 57.08" stroke="#13385A" stroke-width="2.03" stroke-miterlimit="10"/>
<path d="M488.84 63.32L487.63 65.86C490 68 493.21 68.56 495.4 67C495.724 66.7584 496.023 66.4836 496.29 66.18C496.6 65.745 496.871 65.2831 497.1 64.8V63.56" stroke="#13385A" stroke-width="2.03" stroke-miterlimit="10"/>
<path d="M486.22 56.54C489.37 55.43 492.61 57.15 491.7 61.98" stroke="#13385A" stroke-width="2.03" stroke-miterlimit="10"/>
<path d="M488.14 51.75C488.393 51.5139 488.621 51.2525 488.82 50.97C488.822 50.9467 488.822 50.9233 488.82 50.9C490.35 48.63 489.99 45.08 486.75 45.29" stroke="#13385A" stroke-width="2.03" stroke-miterlimit="10"/>
<path d="M516.27 76.53H477.93L468.78 67.39V28.21L477.93 19.07H516.27L525.42 28.21V67.39L516.27 76.53Z" stroke="#13385A" stroke-width="2.03" stroke-miterlimit="10"/>
<path d="M478.51 87.13V80.51" stroke="#13385A" stroke-width="2.03" stroke-miterlimit="10"/>
<path d="M481.19 89.86C481.18 90.3878 481.014 90.901 480.714 91.3351C480.413 91.7692 479.992 92.1049 479.501 92.3001C479.011 92.4953 478.473 92.5413 477.957 92.4323C477.44 92.3233 476.967 92.0642 476.598 91.6875C476.228 91.3107 475.977 90.8332 475.878 90.3147C475.779 89.7963 475.835 89.26 476.039 88.7732C476.243 88.2864 476.586 87.8708 477.026 87.5784C477.466 87.2861 477.982 87.1301 478.51 87.13C478.865 87.1326 479.216 87.2054 479.544 87.3441C479.871 87.4829 480.168 87.6848 480.417 87.9385C480.666 88.1921 480.862 88.4924 480.995 88.8222C481.127 89.1519 481.194 89.5046 481.19 89.86Z" stroke="#13385A" stroke-width="2.03" stroke-miterlimit="10"/>
<path d="M490.9 87.13V80.51" stroke="#13385A" stroke-width="2.03" stroke-miterlimit="10"/>
<path d="M493.58 89.86C493.57 90.3878 493.405 90.901 493.104 91.3351C492.804 91.7692 492.382 92.1049 491.892 92.3001C491.401 92.4953 490.864 92.5413 490.347 92.4323C489.831 92.3233 489.358 92.0642 488.988 91.6875C488.618 91.3107 488.368 90.8332 488.269 90.3147C488.169 89.7963 488.225 89.26 488.429 88.7732C488.634 88.2864 488.977 87.8708 489.417 87.5784C489.856 87.2861 490.372 87.1301 490.9 87.13C491.256 87.1326 491.607 87.2054 491.934 87.3441C492.262 87.4829 492.558 87.6848 492.807 87.9385C493.056 88.1921 493.253 88.4924 493.385 88.8222C493.518 89.1519 493.584 89.5046 493.58 89.86V89.86Z" stroke="#13385A" stroke-width="2.03" stroke-miterlimit="10"/>
<path d="M503.3 87.13V80.51" stroke="#13385A" stroke-width="2.03" stroke-miterlimit="10"/>
<path d="M506 89.86C505.992 90.3907 505.827 90.9072 505.526 91.3445C505.226 91.7818 504.802 92.1203 504.309 92.3175C503.817 92.5147 503.277 92.5617 502.757 92.4526C502.238 92.3435 501.762 92.0832 501.391 91.7045C501.019 91.3257 500.767 90.8455 500.668 90.3241C500.568 89.8028 500.625 89.2637 500.832 88.7746C501.038 88.2856 501.384 87.8685 501.827 87.5759C502.27 87.2832 502.789 87.1281 503.32 87.13C503.675 87.1326 504.027 87.2054 504.354 87.3441C504.681 87.4829 504.978 87.6848 505.227 87.9385C505.476 88.1921 505.672 88.4924 505.805 88.8222C505.938 89.1519 506.004 89.5046 506 89.86V89.86Z" stroke="#13385A" stroke-width="2.03" stroke-miterlimit="10"/>
<path d="M515.69 87.13V80.51" stroke="#13385A" stroke-width="2.03" stroke-miterlimit="10"/>
<path d="M518.38 89.86C518.372 90.3903 518.207 90.9064 517.907 91.3434C517.607 91.7805 517.184 92.1191 516.692 92.3165C516.2 92.514 515.66 92.5616 515.141 92.4534C514.622 92.3451 514.146 92.0858 513.774 91.708C513.402 91.3303 513.149 90.8509 513.049 90.3303C512.948 89.8096 513.004 89.2708 513.209 88.7816C513.413 88.2924 513.758 87.8746 514.199 87.5807C514.641 87.2869 515.159 87.1301 515.69 87.13C516.046 87.1313 516.398 87.2031 516.727 87.3412C517.055 87.4794 517.353 87.6812 517.603 87.9349C517.853 88.1887 518.051 88.4895 518.184 88.8199C518.317 89.1503 518.384 89.5038 518.38 89.86Z" stroke="#13385A" stroke-width="2.03" stroke-miterlimit="10"/>
<path d="M535.84 66.68H529.32" stroke="#13385A" stroke-width="2.03" stroke-miterlimit="10"/>
<path d="M538.53 64C539.072 63.9921 539.603 64.1454 540.057 64.4405C540.512 64.7356 540.868 65.1592 541.081 65.6573C541.293 66.1554 541.353 66.7055 541.252 67.2377C541.152 67.7699 540.895 68.26 540.515 68.6458C540.134 69.0316 539.648 69.2956 539.117 69.4043C538.587 69.5129 538.036 69.4612 537.535 69.2558C537.034 69.0504 536.605 68.7006 536.303 68.2508C536.001 67.801 535.84 67.2717 535.84 66.73C535.836 66.3738 535.903 66.0203 536.036 65.6899C536.169 65.3595 536.367 65.0587 536.617 64.805C536.867 64.5512 537.164 64.3494 537.493 64.2113C537.821 64.0731 538.174 64.0013 538.53 64V64Z" stroke="#13385A" stroke-width="2.03" stroke-miterlimit="10"/>
<path d="M535.84 54.09H529.32" stroke="#13385A" stroke-width="2.03" stroke-miterlimit="10"/>
<path d="M538.53 51.37C539.072 51.3621 539.604 51.5157 540.058 51.8112C540.513 52.1068 540.869 52.5309 541.081 53.0296C541.294 53.5283 541.353 54.0789 541.252 54.6114C541.15 55.1438 540.892 55.634 540.511 56.0194C540.13 56.4048 539.643 56.668 539.111 56.7755C538.58 56.883 538.029 56.8299 537.528 56.623C537.027 56.416 536.599 56.0646 536.298 55.6135C535.997 55.1624 535.838 54.6321 535.84 54.09C535.837 53.7346 535.905 53.3822 536.039 53.0529C536.173 52.7237 536.37 52.4241 536.62 52.1714C536.87 51.9187 537.167 51.7178 537.495 51.5803C537.823 51.4428 538.175 51.3713 538.53 51.37V51.37Z" stroke="#13385A" stroke-width="2.03" stroke-miterlimit="10"/>
<path d="M535.84 41.51H529.32" stroke="#13385A" stroke-width="2.03" stroke-miterlimit="10"/>
<path d="M538.53 38.78C539.072 38.7721 539.603 38.9254 540.057 39.2205C540.512 39.5156 540.868 39.9392 541.081 40.4373C541.293 40.9354 541.353 41.4855 541.252 42.0177C541.152 42.5498 540.895 43.04 540.515 43.4258C540.134 43.8116 539.648 44.0756 539.117 44.1843C538.587 44.2929 538.036 44.2412 537.535 44.0358C537.034 43.8304 536.605 43.4806 536.303 43.0308C536.001 42.581 535.84 42.0517 535.84 41.51C535.836 41.1538 535.903 40.8003 536.036 40.4699C536.169 40.1395 536.367 39.8387 536.617 39.585C536.867 39.3312 537.164 39.1294 537.493 38.9913C537.821 38.8531 538.174 38.7813 538.53 38.78V38.78Z" stroke="#13385A" stroke-width="2.03" stroke-miterlimit="10"/>
<path d="M535.84 28.92H529.32" stroke="#13385A" stroke-width="2.03" stroke-miterlimit="10"/>
<path d="M538.53 26.2C539.069 26.1941 539.598 26.3485 540.049 26.6438C540.5 26.939 540.854 27.3617 541.064 27.8582C541.275 28.3546 541.333 28.9025 541.231 29.432C541.13 29.9616 540.873 30.4491 540.494 30.8325C540.115 31.2159 539.63 31.478 539.102 31.5854C538.573 31.6928 538.025 31.6407 537.526 31.4357C537.027 31.2308 536.601 30.8822 536.3 30.4342C536 29.9863 535.84 29.4593 535.84 28.92C535.837 28.5646 535.905 28.2122 536.039 27.8829C536.173 27.5537 536.37 27.2541 536.62 27.0014C536.87 26.7487 537.167 26.5478 537.495 26.4103C537.823 26.2728 538.175 26.2013 538.53 26.2V26.2Z" stroke="#13385A" stroke-width="2.03" stroke-miterlimit="10"/>
<path d="M515.69 8.46002V15.08" stroke="#13385A" stroke-width="2.03" stroke-miterlimit="10"/>
<path d="M513 5.74001C512.978 5.37363 513.031 5.00655 513.155 4.66136C513.28 4.31617 513.474 4.00018 513.726 3.73283C513.977 3.46549 514.281 3.25245 514.618 3.10682C514.955 2.9612 515.318 2.88608 515.685 2.88608C516.052 2.88608 516.415 2.9612 516.752 3.10682C517.089 3.25245 517.393 3.46549 517.644 3.73283C517.896 4.00018 518.09 4.31617 518.215 4.66136C518.34 5.00655 518.392 5.37363 518.37 5.74001C518.392 6.1064 518.34 6.47348 518.215 6.81867C518.09 7.16386 517.896 7.47985 517.644 7.7472C517.393 8.01454 517.089 8.22758 516.752 8.3732C516.415 8.51883 516.052 8.59395 515.685 8.59395C515.318 8.59395 514.955 8.51883 514.618 8.3732C514.281 8.22758 513.977 8.01454 513.726 7.7472C513.474 7.47985 513.28 7.16386 513.155 6.81867C513.031 6.47348 512.978 6.1064 513 5.74001V5.74001Z" stroke="#13385A" stroke-width="2.03" stroke-miterlimit="10"/>
<path d="M503.3 8.46002V15.08" stroke="#13385A" stroke-width="2.03" stroke-miterlimit="10"/>
<path d="M500.61 5.74002C500.616 5.2093 500.779 4.6922 501.078 4.2538C501.377 3.81539 501.8 3.47528 502.292 3.27627C502.784 3.07727 503.324 3.02826 503.843 3.13542C504.363 3.24257 504.84 3.50111 505.213 3.87848C505.586 4.25585 505.839 4.73519 505.941 5.25616C506.042 5.77713 505.987 6.31646 505.783 6.80625C505.578 7.29603 505.233 7.7144 504.792 8.00867C504.35 8.30295 503.831 8.45999 503.3 8.46002C502.945 8.45871 502.593 8.38725 502.266 8.24972C501.938 8.1122 501.641 7.91132 501.391 7.65861C501.141 7.4059 500.943 7.10633 500.809 6.7771C500.675 6.44786 500.608 6.09543 500.61 5.74002V5.74002Z" stroke="#13385A" stroke-width="2.03" stroke-miterlimit="10"/>
<path d="M490.9 8.46002V15.08" stroke="#13385A" stroke-width="2.03" stroke-miterlimit="10"/>
<path d="M488.22 5.74003C488.22 5.02925 488.502 4.34758 489.005 3.84498C489.507 3.34238 490.189 3.06003 490.9 3.06003C491.611 3.06003 492.292 3.34238 492.795 3.84498C493.297 4.34758 493.58 5.02925 493.58 5.74003C493.58 6.45081 493.297 7.13248 492.795 7.63507C492.292 8.13767 491.611 8.42003 490.9 8.42003C490.189 8.42003 489.507 8.13767 489.005 7.63507C488.502 7.13248 488.22 6.45081 488.22 5.74003V5.74003Z" stroke="#13385A" stroke-width="2.03" stroke-miterlimit="10"/>
<path d="M478.51 8.46002V15.08" stroke="#13385A" stroke-width="2.03" stroke-miterlimit="10"/>
<path d="M475.83 5.74003C475.83 5.02925 476.112 4.34758 476.615 3.84498C477.118 3.34238 477.799 3.06003 478.51 3.06003C479.221 3.06003 479.903 3.34238 480.405 3.84498C480.908 4.34758 481.19 5.02925 481.19 5.74003C481.19 6.45081 480.908 7.13248 480.405 7.63507C479.903 8.13767 479.221 8.42003 478.51 8.42003C477.799 8.42003 477.118 8.13767 476.615 7.63507C476.112 7.13248 475.83 6.45081 475.83 5.74003Z" stroke="#13385A" stroke-width="2.03" stroke-miterlimit="10"/>
<path d="M458.36 28.92H464.88" stroke="#13385A" stroke-width="2.03" stroke-miterlimit="10"/>
<path d="M455.67 31.64C455.131 31.6459 454.602 31.4915 454.151 31.1963C453.699 30.901 453.346 30.4783 453.136 29.9819C452.925 29.4854 452.867 28.9376 452.969 28.408C453.07 27.8784 453.327 27.3909 453.706 27.0075C454.085 26.6241 454.57 26.3621 455.098 26.2547C455.627 26.1473 456.175 26.1993 456.674 26.4043C457.173 26.6093 457.599 26.9578 457.899 27.4058C458.2 27.8537 458.36 28.3808 458.36 28.92C458.363 29.2754 458.295 29.6278 458.161 29.9571C458.027 30.2863 457.83 30.5859 457.58 30.8386C457.33 31.0913 457.032 31.2922 456.705 31.4297C456.377 31.5672 456.025 31.6387 455.67 31.64Z" stroke="#13385A" stroke-width="2.03" stroke-miterlimit="10"/>
<path d="M458.36 41.51H464.88" stroke="#13385A" stroke-width="2.03" stroke-miterlimit="10"/>
<path d="M455.67 44.23C457.15 44.23 458.35 43.0122 458.35 41.51C458.35 40.0078 457.15 38.79 455.67 38.79C454.19 38.79 452.99 40.0078 452.99 41.51C452.99 43.0122 454.19 44.23 455.67 44.23Z" stroke="#13385A" stroke-width="2.03" stroke-miterlimit="10"/>
<path d="M458.36 54.09H464.88" stroke="#13385A" stroke-width="2.03" stroke-miterlimit="10"/>
<path d="M455.67 56.81C457.15 56.81 458.35 55.5922 458.35 54.09C458.35 52.5878 457.15 51.37 455.67 51.37C454.19 51.37 452.99 52.5878 452.99 54.09C452.99 55.5922 454.19 56.81 455.67 56.81Z" stroke="#13385A" stroke-width="2.03" stroke-miterlimit="10"/>
<path d="M458.36 66.68H464.88" stroke="#13385A" stroke-width="2.03" stroke-miterlimit="10"/>
<path d="M455.67 69.4C455.128 69.408 454.596 69.2544 454.142 68.9588C453.687 68.6633 453.331 68.2391 453.119 67.7404C452.906 67.2418 452.847 66.6911 452.949 66.1587C453.05 65.6262 453.308 65.1361 453.689 64.7506C454.07 64.3652 454.558 64.102 455.089 63.9945C455.62 63.887 456.172 63.9401 456.673 64.1471C457.174 64.354 457.602 64.7054 457.902 65.1565C458.203 65.6076 458.362 66.138 458.36 66.68C458.363 67.0354 458.295 67.3879 458.162 67.7171C458.028 68.0463 457.83 68.3459 457.58 68.5986C457.33 68.8513 457.033 69.0522 456.705 69.1897C456.377 69.3272 456.026 69.3987 455.67 69.4V69.4Z" stroke="#13385A" stroke-width="2.03" stroke-miterlimit="10"/>
</g>
<g clip-path="url(#clip5)">
<g style="mix-blend-mode:multiply" opacity="0.19">
<path d="M549.28 35.65C557.79 26.81 577.9 22.56 604.1 26.82C630.3 31.08 633.33 39 635.16 43.88C636.99 48.76 641.25 78.29 638.81 83.17C636.37 88.05 635.16 96 620.54 99.61C605.92 103.22 579.73 106.61 575.16 106.61C570.59 106.61 546.53 107.83 544.4 84.38C542.27 60.93 541.66 43.57 549.28 35.65Z" fill="#88BDEB"/>
</g>
<path d="M636.889 61.77V69.61H564.489V61.77H564.889H636.889Z" fill="#C2E4F9"/>
<path d="M636.889 61.77V69.61H564.489V61.77V15.01H636.889V61.77Z" stroke="#13385A" stroke-width="2.03" stroke-miterlimit="10"/>
<path d="M585.84 79.12H593.79H607.69H614.52" stroke="#13385A" stroke-width="2.03" stroke-miterlimit="10"/>
<path d="M607.68 79.12V72.68" stroke="#13385A" stroke-width="2.03" stroke-miterlimit="10"/>
<path d="M593.79 79.12V69.78" stroke="#13385A" stroke-width="2.03" stroke-miterlimit="10"/>
<path d="M570.92 34.52H578.09L583.35 43.15L590.05 24.45L594.35 35.48H601.52" stroke="#13385A" stroke-width="2.03" stroke-miterlimit="10"/>
<path d="M564.89 61.77H636.89" stroke="#13385A" stroke-width="2.03" stroke-miterlimit="10"/>
<path d="M597.779 53.17H628.379" stroke="#13385A" stroke-width="2.03" stroke-miterlimit="10"/>
<path d="M597.779 46.25H628.379" stroke="#13385A" stroke-width="2.03" stroke-miterlimit="10"/>
<path d="M611.17 39.33H628.38" stroke="#13385A" stroke-width="2.03" stroke-miterlimit="10"/>
<path d="M611.17 32.41H628.38" stroke="#13385A" stroke-width="2.03" stroke-miterlimit="10"/>
<path d="M611.17 25.49H628.38" stroke="#13385A" stroke-width="2.03" stroke-miterlimit="10"/>
</g>
<g clip-path="url(#clip6)">
<g style="mix-blend-mode:multiply" opacity="0.19">
<path d="M646.28 35.12C654.79 26.27 674.9 22 701.1 26.29C727.3 30.58 730.33 38.47 732.16 43.34C733.99 48.21 738.25 77.76 735.81 82.63C733.37 87.5 732.16 95.42 717.54 99.08C702.92 102.74 676.73 106.08 672.16 106.08C667.59 106.08 643.53 107.3 641.4 83.85C639.27 60.4 638.66 43 646.28 35.12Z" fill="#88BDEB"/>
</g>
<path d="M731.64 85.33C731.749 85.5356 731.773 85.7763 731.706 85.9994C731.638 86.2225 731.485 86.4097 731.28 86.52L707.77 99.11C707.564 99.2198 707.323 99.2436 707.1 99.1761C706.877 99.1086 706.69 98.9554 706.58 98.75L702.87 91.75C702.763 91.5427 702.742 91.3019 702.812 91.0794C702.881 90.8569 703.034 90.6704 703.24 90.56L705.62 89.28L724.55 79.17L726.75 78C726.852 77.946 726.964 77.9127 727.079 77.9021C727.195 77.8915 727.311 77.9037 727.421 77.9381C727.532 77.9724 727.635 78.0283 727.724 78.1024C727.812 78.1765 727.886 78.2674 727.94 78.37L731.64 85.33Z" fill="#C2E4F9"/>
<path d="M713.49 28.83L715.05 37.71C714.17 37.91 707.44 39.33 706.58 39.32L705.26 46.78C703.39 45.22 698.62 47.78 699.72 49.89L697.8 46.28C697.717 46.1315 697.616 45.9938 697.5 45.87C699.017 42.3512 699.295 38.4214 698.288 34.7239C697.282 31.0263 695.049 27.7801 691.957 25.5165C688.865 23.2529 685.096 22.1061 681.267 22.2636C677.438 22.4212 673.776 23.8738 670.881 26.3838C667.985 28.8938 666.027 32.3124 665.327 36.0802C664.628 39.8479 665.228 43.7415 667.029 47.1238C668.831 50.506 671.727 53.1766 675.244 54.6982C678.761 56.2199 682.691 56.5026 686.39 55.5L691.89 65.84C687.61 63.67 684.14 62 680.26 61.7C678.55 61.59 677.48 63.27 677.46 64.94C676.66 67.14 675.15 70.94 674.89 71.54L666.45 68.46C666.73 67.59 668.87 61.03 669.3 60.29L663.22 55.16C662.56 55.73 656.5 58.98 655.7 59.4L651.21 51.59C651.97 51.1 657.81 47.46 658.62 47.17L657.24 39.32C656.38 39.32 649.66 37.91 648.77 37.71L650.33 28.83C651.23 28.95 658.03 29.93 658.84 30.23L662.84 23.33C662.17 22.78 657.93 17.33 657.38 16.63L664.26 10.84C664.87 11.51 669.46 16.65 669.88 17.4L677.34 14.67C677.19 13.82 677.41 6.91999 677.45 6.01999H686.45C686.45 6.91999 686.71 13.82 686.56 14.67L694 17.4C694.42 16.65 699 11.51 699.62 10.84L706.5 16.63C705.95 17.35 701.7 22.78 701.04 23.33L705.04 30.23C705.79 29.93 712.59 29 713.49 28.83Z" fill="#C2E4F9"/>
<path d="M686.389 55.5C682.651 56.5324 678.674 56.263 675.109 54.7361C671.545 53.2091 668.606 50.5154 666.775 47.0974C664.944 43.6793 664.329 39.7401 665.033 35.9268C665.736 32.1135 667.715 28.6527 670.645 26.1129C673.576 23.5731 677.282 22.1052 681.157 21.9505C685.031 21.7957 688.843 22.9631 691.967 25.2611C695.09 27.5591 697.339 30.851 698.345 34.596C699.35 38.3411 699.052 42.3167 697.499 45.87" fill="white"/>
<path d="M686.389 55.5C682.651 56.5324 678.674 56.263 675.109 54.7361C671.545 53.2091 668.606 50.5154 666.775 47.0974C664.944 43.6793 664.329 39.7401 665.033 35.9268C665.736 32.1135 667.715 28.6527 670.645 26.1129C673.576 23.5731 677.282 22.1052 681.157 21.9505C685.031 21.7957 688.843 22.9631 691.967 25.2611C695.09 27.5591 697.339 30.851 698.345 34.596C699.35 38.3411 699.052 42.3167 697.499 45.87" stroke="#13385A" stroke-width="2.03" stroke-miterlimit="10"/>
<path d="M705.26 46.78L706.58 39.32C707.44 39.32 714.17 37.91 715.05 37.71L713.49 28.83C712.59 28.95 705.79 29.93 704.98 30.23L700.98 23.33C701.64 22.78 705.89 17.33 706.44 16.63L699.59 10.84C698.98 11.51 694.39 16.65 693.97 17.4L686.51 14.67C686.66 13.82 686.44 6.91999 686.4 6.01999H677.4C677.4 6.91999 677.14 13.82 677.29 14.67L669.85 17.4C669.43 16.65 664.85 11.51 664.23 10.84L657.35 16.63C657.9 17.35 662.14 22.78 662.81 23.33L658.81 30.23C658 29.93 651.2 28.95 650.3 28.83L648.77 37.71C649.66 37.91 656.38 39.33 657.24 39.32L658.62 47.17C657.81 47.46 651.97 51.1 651.21 51.59L655.7 59.4C656.5 58.98 662.56 55.73 663.22 55.16L669.3 60.29C668.87 61.03 666.73 67.59 666.45 68.46L674.89 71.54C675.15 70.91 676.66 67.14 677.46 64.94" stroke="#13385A" stroke-width="2.03" stroke-miterlimit="10"/>
<path d="M669.23 37.47C669.098 35.4712 669.664 33.4887 670.83 31.86C671.385 31.1935 672.088 30.6658 672.883 30.3186C673.678 29.9714 674.543 29.8144 675.41 29.86C676.348 29.8395 677.28 30.0238 678.14 30.4C678.908 30.7652 679.575 31.3148 680.08 32C680.614 32.7132 681.002 33.5256 681.22 34.39C681.482 35.4022 681.61 36.4444 681.6 37.49C681.73 39.4855 681.164 41.4644 680 43.09C679.446 43.7556 678.744 44.283 677.951 44.6302C677.158 44.9774 676.294 45.1348 675.43 45.09C674.485 45.1114 673.546 44.9272 672.68 44.55C671.911 44.2077 671.243 43.674 670.74 43C670.205 42.2868 669.817 41.4744 669.6 40.61C669.338 39.5842 669.214 38.5284 669.23 37.47ZM672.23 37.47C672.226 38.1409 672.286 38.8105 672.41 39.47C672.517 40.0416 672.716 40.5921 673 41.1C673.245 41.511 673.589 41.8546 674 42.1C674.623 42.4453 675.35 42.5536 676.046 42.4047C676.743 42.2558 677.362 41.8598 677.79 41.29C678.442 40.1135 678.734 38.7712 678.63 37.43C678.634 36.7591 678.574 36.0893 678.45 35.43C678.349 34.8718 678.163 34.3323 677.9 33.83C677.663 33.3936 677.319 33.0252 676.9 32.76C676.272 32.3988 675.532 32.2837 674.825 32.437C674.117 32.5904 673.491 33.0013 673.07 33.59C672.413 34.772 672.121 36.1221 672.23 37.47ZM683.05 49C682.398 49.1776 681.725 49.2683 681.05 49.27C680.358 49.2555 679.671 49.1649 679 49C678.34 48.86 677.69 48.7 677.07 48.53L675.25 48.06C674.713 47.9254 674.163 47.8549 673.61 47.85C673.272 47.8458 672.936 47.8861 672.61 47.97V45.53C673.008 45.4491 673.413 45.4089 673.82 45.41C674.405 45.4123 674.989 45.4794 675.56 45.61L677.32 46.05C677.91 46.21 678.53 46.36 679.15 46.49C679.806 46.6345 680.477 46.7049 681.15 46.7C681.45 46.7 681.77 46.7 682.09 46.65C682.426 46.6096 682.76 46.5495 683.09 46.47L683.05 49Z" fill="#C2E4F9"/>
<path d="M690.24 41.53H685.76L684.66 44.76H681.81L687.05 30.08H689.16L694.41 44.76H691.41L690.24 41.53ZM686.49 39.24H689.62L688.53 36L688.09 33.71H688L687.55 36L686.49 39.24Z" fill="#C2E4F9"/>
<path d="M724.229 79.17C723.432 77.586 722.764 75.9407 722.229 74.25C721.689 72.25 722.759 69.88 721.419 66.25C718.429 58.12 714.599 49.4 711.679 48C709.439 46.89 708.129 47.76 706.599 49.67L706.429 49.35L705.429 47.35C705.316 47.1396 705.163 46.9529 704.979 46.8C703.109 45.24 698.339 47.8 699.439 49.91L697.519 46.3C697.44 46.1493 697.339 46.0111 697.219 45.89C695.379 43.95 690.049 46.69 691.159 49.22L690.239 47.48L684.949 37.54C682.999 33.91 676.459 37.41 678.369 41L686.069 55.49L691.569 65.83C687.289 63.67 683.819 62 679.939 61.7C678.229 61.59 677.159 63.27 677.139 64.94C677.106 65.4799 677.22 66.0186 677.468 66.4992C677.717 66.9798 678.09 67.3843 678.549 67.67C687.899 72.13 693.629 76.3 702.299 84.9C703.489 86.2315 704.498 87.7143 705.299 89.31L724.229 79.17Z" fill="white"/>
<path d="M710.08 55.54L706.92 49.62L705.7 47.33C705.593 47.118 705.443 46.9306 705.26 46.78C703.39 45.22 698.62 47.78 699.72 49.89L697.8 46.28C697.717 46.1315 697.616 45.9938 697.5 45.87C695.66 43.93 690.33 46.67 691.44 49.2" stroke="#13385A" stroke-width="2.03" stroke-miterlimit="10"/>
<path d="M724.55 79.17C723.753 77.586 723.084 75.9407 722.55 74.25C722.01 72.25 723.08 69.88 721.74 66.25C718.74 58.12 714.92 49.4 712 48C709.76 46.89 708.45 47.76 706.92 49.67" stroke="#13385A" stroke-width="2.03" stroke-miterlimit="10"/>
<path d="M691.44 49.2L685.23 37.52C683.31 33.91 676.78 37.41 678.69 41.01L686.39 55.5L691.89 65.84C687.61 63.67 684.14 62 680.26 61.7C678.55 61.59 677.48 63.27 677.46 64.94C677.427 65.4799 677.54 66.0186 677.789 66.4992C678.037 66.9798 678.41 67.3843 678.87 67.67C688.21 72.13 694 76.3 702.62 84.9C703.809 86.2315 704.818 87.7143 705.62 89.31" stroke="#13385A" stroke-width="2.03" stroke-miterlimit="10"/>
<path d="M694.649 55.23L691.489 49.3" stroke="#13385A" stroke-width="2.03" stroke-miterlimit="10"/>
<path d="M699.72 49.89L702.68 55.47" stroke="#13385A" stroke-width="2.03" stroke-miterlimit="10"/>
<path d="M724.55 79.17L726.75 78C726.852 77.946 726.964 77.9127 727.079 77.9021C727.195 77.8915 727.311 77.9037 727.421 77.9381C727.532 77.9724 727.635 78.0283 727.724 78.1024C727.812 78.1765 727.886 78.2674 727.94 78.37L731.64 85.37C731.749 85.5756 731.773 85.8163 731.706 86.0394C731.638 86.2625 731.485 86.4497 731.28 86.56L707.77 99.11C707.564 99.2198 707.323 99.2436 707.1 99.1761C706.877 99.1086 706.69 98.9554 706.58 98.75L702.87 91.75C702.763 91.5427 702.742 91.3019 702.812 91.0794C702.881 90.8569 703.034 90.6704 703.24 90.56L705.62 89.28L724.55 79.17Z" stroke="#13385A" stroke-width="2.03" stroke-miterlimit="10"/>
</g>
<defs>
<clipPath id="clip0">
<rect y="10" width="104.83" height="87.61" fill="white"/>
</clipPath>
<clipPath id="clip1">
<rect x="140" y="8" width="104.49" height="98.33" fill="white"/>
</clipPath>
<clipPath id="clip2">
<rect x="245" width="99.32" height="106.48" fill="white"/>
</clipPath>
<clipPath id="clip3">
<rect x="345" y="4" width="98.42" height="102.35" fill="white"/>
</clipPath>
<clipPath id="clip4">
<rect x="444" y="2" width="98.22" height="104.47" fill="white"/>
</clipPath>
<clipPath id="clip5">
<rect x="543" y="14" width="96.55" height="92.63" fill="white"/>
</clipPath>
<clipPath id="clip6">
<rect x="640" y="5" width="96.55" height="101.09" fill="white"/>
</clipPath>
</defs>
</svg>
